<svg xmlns="http://www.w3.org/2000/svg" width="940" height="600" viewBox="0 0 940 600">
<rect width="100%" height="100%" fill="#fffaf2"/>
<rect x="18" y="18" width="904" height="564" rx="0" fill="#ffffff" stroke="#eadfce"/>
<line x1="18" y1="18" x2="922" y2="18" stroke="#d5412f" stroke-width="5"/>
<text x="36" y="44" font-family="Inter, &quot;Helvetica Neue&quot;, Arial, sans-serif" font-size="22" font-weight="800" fill="#171411">Competition Selects Rules, Not Good Intentions</text>
<text x="36" y="68" font-family="Inter, &quot;Helvetica Neue&quot;, Arial, sans-serif" font-size="13" fill="#5f5a52">Material competition shifts mass to a bridge; engagement competition can select the sink</text>
<line x1="36" y1="82" x2="904" y2="82" stroke="#e7dfd3" stroke-width="1"/>
<text x="78" y="92" font-family="Inter, &quot;Helvetica Neue&quot;, Arial, sans-serif" font-size="14" font-weight="800" fill="#171411">A. Competition on material viability</text>
<rect x="78" y="112" width="373.0" height="342" fill="#ffffff" stroke="#e7dfd3"/>
<line x1="78" y1="454.0" x2="451.0" y2="454.0" stroke="#e7dfd3" stroke-width="1"/>
<text x="67" y="458.0" font-family="Inter, &quot;Helvetica Neue&quot;, Arial, sans-serif" font-size="11" fill="#5f5a52" text-anchor="end">0</text>
<line x1="78" y1="368.5" x2="451.0" y2="368.5" stroke="#e7dfd3" stroke-width="1"/>
<text x="67" y="372.5" font-family="Inter, &quot;Helvetica Neue&quot;, Arial, sans-serif" font-size="11" fill="#5f5a52" text-anchor="end">0.25</text>
<line x1="78" y1="283.0" x2="451.0" y2="283.0" stroke="#e7dfd3" stroke-width="1"/>
<text x="67" y="287.0" font-family="Inter, &quot;Helvetica Neue&quot;, Arial, sans-serif" font-size="11" fill="#5f5a52" text-anchor="end">0.5</text>
<line x1="78" y1="197.5" x2="451.0" y2="197.5" stroke="#e7dfd3" stroke-width="1"/>
<text x="67" y="201.5" font-family="Inter, &quot;Helvetica Neue&quot;, Arial, sans-serif" font-size="11" fill="#5f5a52" text-anchor="end">0.75</text>
<line x1="78" y1="112.0" x2="451.0" y2="112.0" stroke="#e7dfd3" stroke-width="1"/>
<text x="67" y="116.0" font-family="Inter, &quot;Helvetica Neue&quot;, Arial, sans-serif" font-size="11" fill="#5f5a52" text-anchor="end">1</text>
<text x="78.0" y="478" font-family="Inter, &quot;Helvetica Neue&quot;, Arial, sans-serif" font-size="11" fill="#5f5a52" text-anchor="middle">0</text>
<line x1="78.0" y1="454" x2="78.0" y2="460" stroke="#5f5a52"/>
<text x="171.25" y="478" font-family="Inter, &quot;Helvetica Neue&quot;, Arial, sans-serif" font-size="11" fill="#5f5a52" text-anchor="middle">20</text>
<line x1="171.2" y1="454" x2="171.2" y2="460" stroke="#5f5a52"/>
<text x="264.5" y="478" font-family="Inter, &quot;Helvetica Neue&quot;, Arial, sans-serif" font-size="11" fill="#5f5a52" text-anchor="middle">40</text>
<line x1="264.5" y1="454" x2="264.5" y2="460" stroke="#5f5a52"/>
<text x="357.75" y="478" font-family="Inter, &quot;Helvetica Neue&quot;, Arial, sans-serif" font-size="11" fill="#5f5a52" text-anchor="middle">60</text>
<line x1="357.8" y1="454" x2="357.8" y2="460" stroke="#5f5a52"/>
<text x="451.0" y="478" font-family="Inter, &quot;Helvetica Neue&quot;, Arial, sans-serif" font-size="11" fill="#5f5a52" text-anchor="middle">80</text>
<line x1="451.0" y1="454" x2="451.0" y2="460" stroke="#5f5a52"/>
<polyline points="78.0,283.0 82.7,282.7 87.3,281.8 92.0,279.8 96.7,275.7 101.3,268.8 106.0,260.9 110.6,252.9 115.3,244.9 120.0,237.1 124.6,229.5 129.3,222.0 133.9,214.9 138.6,207.9 143.3,201.3 147.9,195.0 152.6,188.9 157.3,183.2 161.9,177.8 166.6,172.7 171.2,168.0 175.9,163.5 180.6,159.3 185.2,155.5 189.9,151.8 194.6,148.5 199.2,145.4 203.9,142.5 208.6,139.9 213.2,137.5 217.9,135.2 222.5,133.2 227.2,131.3 231.9,129.6 236.5,128.0 241.2,126.6 245.8,125.2 250.5,124.0 255.2,122.9 259.8,121.9 264.5,121.0 269.2,120.2 273.8,119.4 278.5,118.8 283.1,118.1 287.8,117.6 292.5,117.1 297.1,116.6 301.8,116.2 306.5,115.8 311.1,115.4 315.8,115.1 320.4,114.8 325.1,114.5 329.8,114.3 334.4,114.1 339.1,113.9 343.8,113.7 348.4,113.6 353.1,113.4 357.8,113.3 362.4,113.2 367.1,113.1 371.7,113.0 376.4,112.9 381.1,112.8 385.7,112.7 390.4,112.6 395.1,112.6 399.7,112.5 404.4,112.5 409.0,112.4 413.7,112.4 418.4,112.4 423.0,112.3 427.7,112.3 432.4,112.3 437.0,112.2 441.7,112.2 446.3,112.2 451.0,112.2" fill="none" stroke="#007f83" stroke-width="3.2" stroke-linejoin="round" stroke-linecap="round"/>
<polyline points="78.0,454.0 82.7,454.0 87.3,454.0 92.0,454.0 96.7,454.0 101.3,454.0 106.0,454.0 110.6,454.0 115.3,454.0 120.0,454.0 124.6,454.0 129.3,454.0 133.9,454.0 138.6,454.0 143.3,454.0 147.9,454.0 152.6,454.0 157.3,454.0 161.9,454.0 166.6,454.0 171.2,454.0 175.9,454.0 180.6,454.0 185.2,451.6 189.9,448.5 194.6,445.3 199.2,442.0 203.9,438.6 208.6,435.1 213.2,431.6 217.9,427.9 222.5,424.2 227.2,420.5 231.9,416.6 236.5,412.7 241.2,408.8 245.8,404.8 250.5,400.8 255.2,396.7 259.8,392.6 264.5,388.5 269.2,384.3 273.8,380.1 278.5,375.9 283.1,371.7 287.8,367.4 292.5,363.2 297.1,358.9 301.8,354.6 306.5,350.3 311.1,345.9 315.8,341.6 320.4,337.2 325.1,332.9 329.8,328.5 334.4,324.1 339.1,319.8 343.8,315.4 348.4,311.0 353.1,306.6 357.8,302.2 362.4,297.8 367.1,293.4 371.7,289.0 376.4,284.5 381.1,280.1 385.7,275.7 390.4,271.3 395.1,266.9 399.7,262.4 404.4,258.0 409.0,253.6 413.7,249.1 418.4,244.7 423.0,240.3 427.7,235.8 432.4,231.4 437.0,226.9 441.7,222.5 446.3,218.1 451.0,213.6" fill="none" stroke="#c74332" stroke-width="3.0" stroke-dasharray="7 6" stroke-linejoin="round" stroke-linecap="round"/>
<text x="96" y="140" font-family="Inter, &quot;Helvetica Neue&quot;, Arial, sans-serif" font-size="12" font-weight="800" fill="#007f83">final bridge share 1.00</text>
<text x="96" y="161" font-family="Inter, &quot;Helvetica Neue&quot;, Arial, sans-serif" font-size="12" font-weight="800" fill="#c74332">final population mass 5.73</text>
<text x="264.5" y="502" font-family="Inter, &quot;Helvetica Neue&quot;, Arial, sans-serif" font-size="12" fill="#5f5a52" text-anchor="middle">slow time</text>
<text x="515.0" y="92" font-family="Inter, &quot;Helvetica Neue&quot;, Arial, sans-serif" font-size="14" font-weight="800" fill="#171411">B. Competition on engagement</text>
<rect x="515.0" y="112" width="373.0" height="342" fill="#ffffff" stroke="#e7dfd3"/>
<line x1="515.0" y1="454.0" x2="888.0" y2="454.0" stroke="#e7dfd3" stroke-width="1"/>
<line x1="515.0" y1="368.5" x2="888.0" y2="368.5" stroke="#e7dfd3" stroke-width="1"/>
<line x1="515.0" y1="283.0" x2="888.0" y2="283.0" stroke="#e7dfd3" stroke-width="1"/>
<line x1="515.0" y1="197.5" x2="888.0" y2="197.5" stroke="#e7dfd3" stroke-width="1"/>
<line x1="515.0" y1="112.0" x2="888.0" y2="112.0" stroke="#e7dfd3" stroke-width="1"/>
<text x="515.0" y="478" font-family="Inter, &quot;Helvetica Neue&quot;, Arial, sans-serif" font-size="11" fill="#5f5a52" text-anchor="middle">0</text>
<line x1="515.0" y1="454" x2="515.0" y2="460" stroke="#5f5a52"/>
<text x="608.25" y="478" font-family="Inter, &quot;Helvetica Neue&quot;, Arial, sans-serif" font-size="11" fill="#5f5a52" text-anchor="middle">20</text>
<line x1="608.2" y1="454" x2="608.2" y2="460" stroke="#5f5a52"/>
<text x="701.5" y="478" font-family="Inter, &quot;Helvetica Neue&quot;, Arial, sans-serif" font-size="11" fill="#5f5a52" text-anchor="middle">40</text>
<line x1="701.5" y1="454" x2="701.5" y2="460" stroke="#5f5a52"/>
<text x="794.75" y="478" font-family="Inter, &quot;Helvetica Neue&quot;, Arial, sans-serif" font-size="11" fill="#5f5a52" text-anchor="middle">60</text>
<line x1="794.8" y1="454" x2="794.8" y2="460" stroke="#5f5a52"/>
<text x="888.0" y="478" font-family="Inter, &quot;Helvetica Neue&quot;, Arial, sans-serif" font-size="11" fill="#5f5a52" text-anchor="middle">80</text>
<line x1="888.0" y1="454" x2="888.0" y2="460" stroke="#5f5a52"/>
<polyline points="515.0,283.0 519.7,284.5 524.3,288.0 529.0,298.8 533.6,335.9 538.3,395.8 543.0,432.3 547.6,446.7 552.3,451.6 557.0,453.2 561.6,453.8 566.3,453.9 571.0,454.0 575.6,454.0 580.3,454.0 584.9,454.0 589.6,454.0 594.3,454.0 598.9,454.0 603.6,454.0 608.2,454.0 612.9,454.0 617.6,454.0 622.2,454.0 626.9,454.0 631.6,454.0 636.2,454.0 640.9,454.0 645.5,454.0 650.2,454.0 654.9,454.0 659.5,454.0 664.2,454.0 668.9,454.0 673.5,454.0 678.2,454.0 682.9,454.0 687.5,454.0 692.2,454.0 696.8,454.0 701.5,454.0 706.2,454.0 710.8,454.0 715.5,454.0 720.1,454.0 724.8,454.0 729.5,454.0 734.1,454.0 738.8,454.0 743.5,454.0 748.1,454.0 752.8,454.0 757.5,454.0 762.1,454.0 766.8,454.0 771.4,454.0 776.1,454.0 780.8,454.0 785.4,454.0 790.1,454.0 794.8,454.0 799.4,454.0 804.1,454.0 808.7,454.0 813.4,454.0 818.1,454.0 822.7,454.0 827.4,454.0 832.0,454.0 836.7,454.0 841.4,454.0 846.0,454.0 850.7,454.0 855.4,454.0 860.0,454.0 864.7,454.0 869.4,454.0 874.0,454.0 878.7,454.0 883.3,454.0 888.0,454.0" fill="none" stroke="#007f83" stroke-width="3.2" stroke-linejoin="round" stroke-linecap="round"/>
<polyline points="515.0,454.0 519.7,454.0 524.3,454.0 529.0,454.0 533.6,454.0 538.3,454.0 543.0,454.0 547.6,454.0 552.3,454.0 557.0,454.0 561.6,454.0 566.3,454.0 571.0,454.0 575.6,454.0 580.3,454.0 584.9,454.0 589.6,454.0 594.3,454.0 598.9,454.0 603.6,454.0 608.2,454.0 612.9,454.0 617.6,454.0 622.2,454.0 626.9,454.0 631.6,454.0 636.2,454.0 640.9,454.0 645.5,454.0 650.2,454.0 654.9,454.0 659.5,454.0 664.2,454.0 668.9,454.0 673.5,454.0 678.2,454.0 682.9,454.0 687.5,454.0 692.2,454.0 696.8,454.0 701.5,454.0 706.2,454.0 710.8,454.0 715.5,454.0 720.1,454.0 724.8,454.0 729.5,454.0 734.1,454.0 738.8,454.0 743.5,454.0 748.1,454.0 752.8,454.0 757.5,454.0 762.1,454.0 766.8,454.0 771.4,454.0 776.1,454.0 780.8,454.0 785.4,454.0 790.1,454.0 794.8,454.0 799.4,454.0 804.1,454.0 808.7,454.0 813.4,454.0 818.1,454.0 822.7,454.0 827.4,454.0 832.0,454.0 836.7,454.0 841.4,454.0 846.0,454.0 850.7,454.0 855.4,454.0 860.0,454.0 864.7,454.0 869.4,454.0 874.0,454.0 878.7,454.0 883.3,454.0 888.0,454.0" fill="none" stroke="#c74332" stroke-width="3.0" stroke-dasharray="7 6" stroke-linejoin="round" stroke-linecap="round"/>
<text x="533.0" y="140" font-family="Inter, &quot;Helvetica Neue&quot;, Arial, sans-serif" font-size="12" font-weight="800" fill="#007f83">final bridge share 0.00</text>
<text x="533.0" y="161" font-family="Inter, &quot;Helvetica Neue&quot;, Arial, sans-serif" font-size="12" font-weight="800" fill="#c74332">final population mass 0.02</text>
<text x="701.5" y="502" font-family="Inter, &quot;Helvetica Neue&quot;, Arial, sans-serif" font-size="12" fill="#5f5a52" text-anchor="middle">slow time</text>
<line x1="78" y1="544" x2="110" y2="544" stroke="#007f83" stroke-width="4" stroke-linecap="round"/>
<text x="120" y="548" font-family="Inter, &quot;Helvetica Neue&quot;, Arial, sans-serif" font-size="12" font-weight="700" fill="#171411">share governed by bridge rule</text>
<line x1="398" y1="544" x2="430" y2="544" stroke="#c74332" stroke-width="4" stroke-dasharray="7 6" stroke-linecap="round"/>
<text x="440" y="548" font-family="Inter, &quot;Helvetica Neue&quot;, Arial, sans-serif" font-size="12" font-weight="700" fill="#171411">absolute population mass, log-scaled to panel</text>
<text x="27" y="283.0" font-family="Inter, &quot;Helvetica Neue&quot;, Arial, sans-serif" font-size="12" fill="#5f5a52" transform="rotate(-90 27 283.0)" text-anchor="middle">share or scaled mass</text>
<text x="36" y="578" font-family="Inter, &quot;Helvetica Neue&quot;, Arial, sans-serif" font-size="10.5" fill="#5f5a52">Bridge and sink start at the same capacity and equal shares. Competition intensity omega = 1.2.</text>
</svg>
