<svg xmlns="http://www.w3.org/2000/svg" width="920" height="828" viewBox="0 0 920 828">
<rect width="100%" height="100%" fill="#ffffff"/>
<text x="32" y="34" font-family="Arial, sans-serif" font-size="22" font-weight="700" fill="#18212f">Internet Adoption and Material-Proxy Changes</text>
<text x="32" y="56" font-family="Arial, sans-serif" font-size="13" fill="#465366">OLS coefficients per 10 percentage point internet-user jump, with country-clustered 95% intervals</text>
<text x="32" y="92" font-family="Arial, sans-serif" font-size="14" font-weight="700" fill="#18212f">GDP per capita (annualized log points)</text>
<line x1="78" y1="201.2" x2="882" y2="201.2" stroke="#98a2b3" stroke-width="1"/>
<line x1="78" y1="104" x2="78" y2="218" stroke="#d0d5dd" stroke-width="1"/>
<line x1="78" y1="218" x2="882" y2="218" stroke="#d0d5dd" stroke-width="1"/>
<text x="38" y="104.0" font-family="Arial, sans-serif" font-size="10" fill="#667085">1.3</text>
<text x="38" y="218.0" font-family="Arial, sans-serif" font-size="10" fill="#667085">-0.22</text>
<text x="78.0" y="238" font-family="Arial, sans-serif" font-size="11" fill="#596579" text-anchor="middle">0</text>
<text x="238.8" y="238" font-family="Arial, sans-serif" font-size="11" fill="#596579" text-anchor="middle">1</text>
<text x="560.4" y="238" font-family="Arial, sans-serif" font-size="11" fill="#596579" text-anchor="middle">3</text>
<text x="882.0" y="238" font-family="Arial, sans-serif" font-size="11" fill="#596579" text-anchor="middle">5</text>
<line x1="78.0" y1="184.7" x2="78.0" y2="115.0" stroke="#2f6fbb" stroke-width="2"/>
<circle cx="78.0" cy="149.9" r="4.5" fill="#2f6fbb" stroke="#ffffff" stroke-width="1.5"/>
<line x1="238.8" y1="191.3" x2="238.8" y2="132.1" stroke="#2f6fbb" stroke-width="2"/>
<circle cx="238.8" cy="161.7" r="4.5" fill="#2f6fbb" stroke="#ffffff" stroke-width="1.5"/>
<line x1="560.4" y1="198.8" x2="560.4" y2="142.6" stroke="#2f6fbb" stroke-width="2"/>
<circle cx="560.4" cy="170.7" r="4.5" fill="#2f6fbb" stroke="#ffffff" stroke-width="1.5"/>
<line x1="882.0" y1="207.0" x2="882.0" y2="158.4" stroke="#2f6fbb" stroke-width="2"/>
<circle cx="882.0" cy="182.7" r="4.5" fill="#2f6fbb" stroke="#ffffff" stroke-width="1.5"/>
<polyline points="78.0,149.9 238.8,161.7 560.4,170.7 882.0,182.7" fill="none" stroke="#2f6fbb" stroke-width="1.6" opacity="0.65"/>
<text x="32" y="270" font-family="Arial, sans-serif" font-size="14" font-weight="700" fill="#18212f">Life expectancy (annualized years)</text>
<line x1="78" y1="353.4" x2="882" y2="353.4" stroke="#98a2b3" stroke-width="1"/>
<line x1="78" y1="282" x2="78" y2="396" stroke="#d0d5dd" stroke-width="1"/>
<line x1="78" y1="396" x2="882" y2="396" stroke="#d0d5dd" stroke-width="1"/>
<text x="38" y="282.0" font-family="Arial, sans-serif" font-size="10" fill="#667085">0.066</text>
<text x="38" y="396.0" font-family="Arial, sans-serif" font-size="10" fill="#667085">-0.039</text>
<text x="78.0" y="416" font-family="Arial, sans-serif" font-size="11" fill="#596579" text-anchor="middle">0</text>
<text x="238.8" y="416" font-family="Arial, sans-serif" font-size="11" fill="#596579" text-anchor="middle">1</text>
<text x="560.4" y="416" font-family="Arial, sans-serif" font-size="11" fill="#596579" text-anchor="middle">3</text>
<text x="882.0" y="416" font-family="Arial, sans-serif" font-size="11" fill="#596579" text-anchor="middle">5</text>
<line x1="78.0" y1="385.0" x2="78.0" y2="293.0" stroke="#2f6fbb" stroke-width="2"/>
<circle cx="78.0" cy="339.0" r="4.5" fill="#2f6fbb" stroke="#ffffff" stroke-width="1.5"/>
<line x1="238.8" y1="368.6" x2="238.8" y2="295.8" stroke="#2f6fbb" stroke-width="2"/>
<circle cx="238.8" cy="332.2" r="4.5" fill="#2f6fbb" stroke="#ffffff" stroke-width="1.5"/>
<line x1="560.4" y1="356.5" x2="560.4" y2="303.4" stroke="#2f6fbb" stroke-width="2"/>
<circle cx="560.4" cy="329.9" r="4.5" fill="#2f6fbb" stroke="#ffffff" stroke-width="1.5"/>
<line x1="882.0" y1="355.6" x2="882.0" y2="310.8" stroke="#2f6fbb" stroke-width="2"/>
<circle cx="882.0" cy="333.2" r="4.5" fill="#2f6fbb" stroke="#ffffff" stroke-width="1.5"/>
<polyline points="78.0,339.0 238.8,332.2 560.4,329.9 882.0,333.2" fill="none" stroke="#2f6fbb" stroke-width="1.6" opacity="0.65"/>
<text x="32" y="448" font-family="Arial, sans-serif" font-size="14" font-weight="700" fill="#18212f">Fertility rate (annualized births per woman)</text>
<line x1="78" y1="563.0" x2="882" y2="563.0" stroke="#98a2b3" stroke-width="1"/>
<line x1="78" y1="460" x2="78" y2="574" stroke="#d0d5dd" stroke-width="1"/>
<line x1="78" y1="574" x2="882" y2="574" stroke="#d0d5dd" stroke-width="1"/>
<text x="38" y="460.0" font-family="Arial, sans-serif" font-size="10" fill="#667085">0.02</text>
<text x="38" y="574.0" font-family="Arial, sans-serif" font-size="10" fill="#667085">-0.0022</text>
<text x="78.0" y="594" font-family="Arial, sans-serif" font-size="11" fill="#596579" text-anchor="middle">0</text>
<text x="238.8" y="594" font-family="Arial, sans-serif" font-size="11" fill="#596579" text-anchor="middle">1</text>
<text x="560.4" y="594" font-family="Arial, sans-serif" font-size="11" fill="#596579" text-anchor="middle">3</text>
<text x="882.0" y="594" font-family="Arial, sans-serif" font-size="11" fill="#596579" text-anchor="middle">5</text>
<line x1="78.0" y1="539.5" x2="78.0" y2="471.9" stroke="#2f6fbb" stroke-width="2"/>
<circle cx="78.0" cy="505.7" r="4.5" fill="#2f6fbb" stroke="#ffffff" stroke-width="1.5"/>
<line x1="238.8" y1="532.5" x2="238.8" y2="471.0" stroke="#2f6fbb" stroke-width="2"/>
<circle cx="238.8" cy="501.8" r="4.5" fill="#2f6fbb" stroke="#ffffff" stroke-width="1.5"/>
<line x1="560.4" y1="547.2" x2="560.4" y2="492.5" stroke="#2f6fbb" stroke-width="2"/>
<circle cx="560.4" cy="519.9" r="4.5" fill="#2f6fbb" stroke="#ffffff" stroke-width="1.5"/>
<line x1="882.0" y1="550.4" x2="882.0" y2="499.4" stroke="#2f6fbb" stroke-width="2"/>
<circle cx="882.0" cy="524.9" r="4.5" fill="#2f6fbb" stroke="#ffffff" stroke-width="1.5"/>
<polyline points="78.0,505.7 238.8,501.8 560.4,519.9 882.0,524.9" fill="none" stroke="#2f6fbb" stroke-width="1.6" opacity="0.65"/>
<text x="32" y="626" font-family="Arial, sans-serif" font-size="14" font-weight="700" fill="#18212f">Suicide mortality (annualized deaths per 100,000)</text>
<line x1="78" y1="651.4" x2="882" y2="651.4" stroke="#98a2b3" stroke-width="1"/>
<line x1="78" y1="638" x2="78" y2="752" stroke="#d0d5dd" stroke-width="1"/>
<line x1="78" y1="752" x2="882" y2="752" stroke="#d0d5dd" stroke-width="1"/>
<text x="38" y="638.0" font-family="Arial, sans-serif" font-size="10" fill="#667085">0.028</text>
<text x="38" y="752.0" font-family="Arial, sans-serif" font-size="10" fill="#667085">-0.21</text>
<text x="78.0" y="772" font-family="Arial, sans-serif" font-size="11" fill="#596579" text-anchor="middle">0</text>
<text x="238.8" y="772" font-family="Arial, sans-serif" font-size="11" fill="#596579" text-anchor="middle">1</text>
<text x="560.4" y="772" font-family="Arial, sans-serif" font-size="11" fill="#596579" text-anchor="middle">3</text>
<text x="882.0" y="772" font-family="Arial, sans-serif" font-size="11" fill="#596579" text-anchor="middle">5</text>
<line x1="78.0" y1="741.0" x2="78.0" y2="661.9" stroke="#2f6fbb" stroke-width="2"/>
<circle cx="78.0" cy="701.4" r="4.5" fill="#2f6fbb" stroke="#ffffff" stroke-width="1.5"/>
<line x1="238.8" y1="730.5" x2="238.8" y2="662.6" stroke="#2f6fbb" stroke-width="2"/>
<circle cx="238.8" cy="696.6" r="4.5" fill="#2f6fbb" stroke="#ffffff" stroke-width="1.5"/>
<line x1="560.4" y1="720.8" x2="560.4" y2="661.3" stroke="#2f6fbb" stroke-width="2"/>
<circle cx="560.4" cy="691.0" r="4.5" fill="#2f6fbb" stroke="#ffffff" stroke-width="1.5"/>
<line x1="882.0" y1="707.7" x2="882.0" y2="649.0" stroke="#2f6fbb" stroke-width="2"/>
<circle cx="882.0" cy="678.4" r="4.5" fill="#2f6fbb" stroke="#ffffff" stroke-width="1.5"/>
<polyline points="78.0,701.4 238.8,696.6 560.4,691.0 882.0,678.4" fill="none" stroke="#2f6fbb" stroke-width="1.6" opacity="0.65"/>
<text x="480.0" y="816" font-family="Arial, sans-serif" font-size="12" fill="#596579" text-anchor="middle">horizon after internet change, years</text>
</svg>
