<svg xmlns="http://www.w3.org/2000/svg" width="920" height="560" viewBox="0 0 920 560">
<rect width="100%" height="100%" fill="#fffaf2"/>
<rect x="18" y="18" width="884" height="524" rx="0" fill="#ffffff" stroke="#eadfce"/>
<line x1="18" y1="18" x2="902" y2="18" stroke="#d5412f" stroke-width="5"/>
<text x="36" y="44" font-family="Inter, &quot;Helvetica Neue&quot;, Arial, sans-serif" font-size="22" font-weight="800" fill="#171411">Mean-Field Preferences Can Remember a Shock</text>
<text x="36" y="68" font-family="Inter, &quot;Helvetica Neue&quot;, Arial, sans-serif" font-size="13" fill="#5f5a52">m = tanh(beta(Jm+b)); beta=2.0, J=0.8, baseline field h=-0.08</text>
<line x1="36" y1="82" x2="884" y2="82" stroke="#e7dfd3" stroke-width="1"/>
<line x1="105.5" y1="98" x2="105.5" y2="488" stroke="#e7dfd3"/>
<text x="105.52941176470591" y="508" font-family="Inter, &quot;Helvetica Neue&quot;, Arial, sans-serif" font-size="12" fill="#5f5a52" text-anchor="middle">-0.30</text>
<line x1="282.0" y1="98" x2="282.0" y2="488" stroke="#e7dfd3"/>
<text x="282.00000000000006" y="508" font-family="Inter, &quot;Helvetica Neue&quot;, Arial, sans-serif" font-size="12" fill="#5f5a52" text-anchor="middle">-0.15</text>
<line x1="458.5" y1="98" x2="458.5" y2="488" stroke="#e7dfd3"/>
<text x="458.47058823529414" y="508" font-family="Inter, &quot;Helvetica Neue&quot;, Arial, sans-serif" font-size="12" fill="#5f5a52" text-anchor="middle">0.00</text>
<line x1="634.9" y1="98" x2="634.9" y2="488" stroke="#e7dfd3"/>
<text x="634.9411764705882" y="508" font-family="Inter, &quot;Helvetica Neue&quot;, Arial, sans-serif" font-size="12" fill="#5f5a52" text-anchor="middle">0.15</text>
<line x1="811.4" y1="98" x2="811.4" y2="488" stroke="#e7dfd3"/>
<text x="811.4117647058824" y="508" font-family="Inter, &quot;Helvetica Neue&quot;, Arial, sans-serif" font-size="12" fill="#5f5a52" text-anchor="middle">0.30</text>
<line x1="82" y1="488.0" x2="882" y2="488.0" stroke="#e7dfd3"/>
<text x="62" y="492.0" font-family="Inter, &quot;Helvetica Neue&quot;, Arial, sans-serif" font-size="12" fill="#5f5a52" text-anchor="end">-1.0</text>
<line x1="82" y1="390.5" x2="882" y2="390.5" stroke="#e7dfd3"/>
<text x="62" y="394.5" font-family="Inter, &quot;Helvetica Neue&quot;, Arial, sans-serif" font-size="12" fill="#5f5a52" text-anchor="end">-0.5</text>
<line x1="82" y1="293.0" x2="882" y2="293.0" stroke="#e7dfd3"/>
<text x="62" y="297.0" font-family="Inter, &quot;Helvetica Neue&quot;, Arial, sans-serif" font-size="12" fill="#5f5a52" text-anchor="end">0.0</text>
<line x1="82" y1="195.5" x2="882" y2="195.5" stroke="#e7dfd3"/>
<text x="62" y="199.5" font-family="Inter, &quot;Helvetica Neue&quot;, Arial, sans-serif" font-size="12" fill="#5f5a52" text-anchor="end">0.5</text>
<line x1="82" y1="98.0" x2="882" y2="98.0" stroke="#e7dfd3"/>
<text x="62" y="102.0" font-family="Inter, &quot;Helvetica Neue&quot;, Arial, sans-serif" font-size="12" fill="#5f5a52" text-anchor="end">1.0</text>
<polyline points="82.0,483.3 85.1,483.2 88.2,483.2 91.2,483.1 94.3,483.1 97.4,483.0 100.5,483.0 103.5,482.9 106.6,482.8 109.7,482.8 112.8,482.7 115.8,482.7 118.9,482.6 122.0,482.5 125.1,482.5 128.2,482.4 131.2,482.3 134.3,482.3 137.4,482.2 140.5,482.2 143.5,482.1 146.6,482.0 149.7,482.0 152.8,481.9 155.8,481.8 158.9,481.7 162.0,481.7 165.1,481.6 168.2,481.5 171.2,481.4 174.3,481.4 177.4,481.3 180.5,481.2 183.5,481.1 186.6,481.1 189.7,481.0 192.8,480.9 195.8,480.8 198.9,480.7 202.0,480.6 205.1,480.6 208.2,480.5 211.2,480.4 214.3,480.3 217.4,480.2 220.5,480.1 223.5,480.0 226.6,479.9 229.7,479.8 232.8,479.7 235.8,479.6 238.9,479.5 242.0,479.4 245.1,479.3 248.2,479.2 251.2,479.1 254.3,479.0 257.4,478.9 260.5,478.8 263.5,478.7 266.6,478.6 269.7,478.5 272.8,478.3 275.8,478.2 278.9,478.1 282.0,478.0 285.1,477.9 288.2,477.7 291.2,477.6 294.3,477.5 297.4,477.4 300.5,477.2 303.5,477.1 306.6,477.0 309.7,476.8 312.8,476.7 315.8,476.5 318.9,476.4 322.0,476.2 325.1,476.1 328.2,475.9 331.2,475.8 334.3,475.6 337.4,475.5 340.5,475.3 343.5,475.2 346.6,475.0 349.7,474.8 352.8,474.7 355.8,474.5 358.9,474.3 362.0,474.1 365.1,474.0 368.2,473.8 371.2,473.6 374.3,473.4 377.4,473.2 380.5,473.0 383.5,472.8 386.6,472.6 389.7,472.4 392.8,472.2 395.8,472.0 398.9,471.8 402.0,471.5 405.1,471.3 408.2,471.1 411.2,470.9 414.3,470.6 417.4,470.4 420.5,470.1 423.5,469.9 426.6,469.6 429.7,469.4 432.8,469.1 435.8,468.8 438.9,468.6 442.0,468.3 445.1,468.0 448.2,467.7 451.2,467.4 454.3,467.1 457.4,466.8 460.5,466.5 463.5,466.1 466.6,465.8 469.7,465.5 472.8,465.1 475.8,464.8 478.9,464.4 482.0,464.1 485.1,463.7 488.2,463.3 491.2,462.9 494.3,462.5 497.4,462.1 500.5,461.7 503.5,461.2 506.6,460.8 509.7,460.3 512.8,459.8 515.8,459.4 518.9,458.9 522.0,458.3 525.1,457.8 528.2,457.3 531.2,456.7 534.3,456.1 537.4,455.5 540.5,454.9 543.5,454.3 546.6,453.6 549.7,452.9 552.8,452.2 555.8,451.5 558.9,450.7 562.0,449.9 565.1,449.0 568.2,448.1 571.2,447.2 574.3,446.2 577.4,445.2 580.5,444.1 583.5,442.9 586.6,441.7 589.7,440.3 592.8,438.9 595.8,437.3 598.9,435.5 602.0,433.5 605.1,431.3 608.2,428.5 611.2,425.0 614.3,419.4" fill="none" stroke="#007f83" stroke-width="3.0" stroke-linecap="round"/>
<polyline points="303.5,164.5 306.6,159.9 309.7,156.6 312.8,154.0 315.8,151.8 318.9,149.9 322.0,148.2 325.1,146.7 328.2,145.3 331.2,143.9 334.3,142.7 337.4,141.6 340.5,140.5 343.5,139.5 346.6,138.5 349.7,137.6 352.8,136.7 355.8,135.9 358.9,135.1 362.0,134.3 365.1,133.6 368.2,132.9 371.2,132.2 374.3,131.5 377.4,130.9 380.5,130.3 383.5,129.7 386.6,129.1 389.7,128.6 392.8,128.0 395.8,127.5 398.9,127.0 402.0,126.5 405.1,126.0 408.2,125.6 411.2,125.1 414.3,124.7 417.4,124.2 420.5,123.8 423.5,123.4 426.6,123.0 429.7,122.6 432.8,122.2 435.8,121.8 438.9,121.5 442.0,121.1 445.1,120.8 448.2,120.4 451.2,120.1 454.3,119.8 457.4,119.4 460.5,119.1 463.5,118.8 466.6,118.5 469.7,118.2 472.8,117.9 475.8,117.6 478.9,117.4 482.0,117.1 485.1,116.8 488.2,116.6 491.2,116.3 494.3,116.0 497.4,115.8 500.5,115.6 503.5,115.3 506.6,115.1 509.7,114.8 512.8,114.6 515.8,114.4 518.9,114.2 522.0,114.0 525.1,113.8 528.2,113.5 531.2,113.3 534.3,113.1 537.4,112.9 540.5,112.7 543.5,112.6 546.6,112.4 549.7,112.2 552.8,112.0 555.8,111.8 558.9,111.6 562.0,111.5 565.1,111.3 568.2,111.1 571.2,111.0 574.3,110.8 577.4,110.6 580.5,110.5 583.5,110.3 586.6,110.2 589.7,110.0 592.8,109.9 595.8,109.7 598.9,109.6 602.0,109.4 605.1,109.3 608.2,109.1 611.2,109.0 614.3,108.9 617.4,108.7 620.5,108.6 623.5,108.5 626.6,108.4 629.7,108.2 632.8,108.1 635.8,108.0 638.9,107.9 642.0,107.7 645.1,107.6 648.2,107.5 651.2,107.4 654.3,107.3 657.4,107.2 660.5,107.1 663.5,107.0 666.6,106.9 669.7,106.7 672.8,106.6 675.8,106.5 678.9,106.4 682.0,106.3 685.1,106.2 688.2,106.1 691.2,106.1 694.3,106.0 697.4,105.9 700.5,105.8 703.5,105.7 706.6,105.6 709.7,105.5 712.8,105.4 715.8,105.3 718.9,105.2 722.0,105.2 725.1,105.1 728.2,105.0 731.2,104.9 734.3,104.8 737.4,104.8 740.5,104.7 743.5,104.6 746.6,104.5 749.7,104.5 752.8,104.4 755.8,104.3 758.9,104.2 762.0,104.2 765.1,104.1 768.2,104.0 771.2,104.0 774.3,103.9 777.4,103.8 780.5,103.8 783.5,103.7 786.6,103.6 789.7,103.6 792.8,103.5 795.8,103.4 798.9,103.4 802.0,103.3 805.1,103.3 808.2,103.2 811.2,103.1 814.3,103.1 817.4,103.0 820.5,103.0 823.5,102.9 826.6,102.9 829.7,102.8 832.8,102.8 835.8,102.7 838.9,102.7 842.0,102.6 845.1,102.5 848.2,102.5 851.2,102.4 854.3,102.4 857.4,102.3 860.5,102.3 863.5,102.3 866.6,102.2 869.7,102.2 872.8,102.1 875.8,102.1 878.9,102.0 882.0,102.0" fill="none" stroke="#007f83" stroke-width="3.0" stroke-linecap="round"/>
<polyline points="303.5,183.5 306.6,189.4 309.7,193.8 312.8,197.6 315.8,201.0 318.9,204.1 322.0,207.1 325.1,209.8 328.2,212.5 331.2,215.0 334.3,217.5 337.4,219.8 340.5,222.1 343.5,224.4 346.6,226.6 349.7,228.8 352.8,230.9 355.8,232.9 358.9,235.0 362.0,237.0 365.1,239.0 368.2,240.9 371.2,242.9 374.3,244.8 377.4,246.7 380.5,248.6 383.5,250.4 386.6,252.3 389.7,254.1 392.8,255.9 395.8,257.7 398.9,259.5 402.0,261.3 405.1,263.1 408.2,264.9 411.2,266.6 414.3,268.4 417.4,270.1 420.5,271.9 423.5,273.6 426.6,275.3 429.7,277.0 432.8,278.8 435.8,280.5 438.9,282.2 442.0,283.9 445.1,285.6 448.2,287.3 451.2,289.0 454.3,290.7 457.4,292.4 460.5,294.1 463.5,295.8 466.6,297.5 469.7,299.2 472.8,300.9 475.8,302.6 478.9,304.3 482.0,306.0 485.1,307.7 488.2,309.5 491.2,311.2 494.3,312.9 497.4,314.6 500.5,316.4 503.5,318.1 506.6,319.9 509.7,321.6 512.8,323.4 515.8,325.2 518.9,327.0 522.0,328.8 525.1,330.6 528.2,332.4 531.2,334.3 534.3,336.1 537.4,338.0 540.5,339.9 543.5,341.8 546.6,343.7 549.7,345.6 552.8,347.6 555.8,349.6 558.9,351.6 562.0,353.7 565.1,355.8 568.2,357.9 571.2,360.0 574.3,362.3 577.4,364.5 580.5,366.8 583.5,369.2 586.6,371.7 589.7,374.3 592.8,377.0 595.8,379.8 598.9,382.7 602.0,385.9 605.1,389.4 608.2,393.4 611.2,398.1 614.3,404.9" fill="none" stroke="#c7831f" stroke-width="2.0" stroke-linecap="round" stroke-dasharray="6 5"/>
<polyline points="364.4,474.0 369.5,473.7 374.6,473.4 379.8,473.0 384.9,472.7 390.1,472.4 395.2,472.0 400.4,471.7 405.5,471.3 410.7,470.9 415.8,470.5 421.0,470.1 426.1,469.7 431.3,469.2 436.4,468.8 441.6,468.3 446.7,467.8 451.9,467.3 457.0,466.8 462.1,466.3 467.3,465.7 472.4,465.2 477.6,464.6 482.7,464.0 487.9,463.3 493.0,462.7 498.2,462.0 503.3,461.2 508.5,460.5 513.6,459.7 518.8,458.9 523.9,458.0 529.1,457.1 534.2,456.1 539.4,455.1 544.5,454.1 549.6,452.9 554.8,451.7 559.9,450.4 565.1,449.0 570.2,447.5 575.4,445.9 580.5,444.1 585.7,442.1 590.8,439.8 596.0,437.2 601.1,434.1 606.3,430.3 611.4,424.7 616.6,108.8 621.7,108.6 626.9,108.3 632.0,108.1 637.1,107.9 642.3,107.7 647.4,107.5 652.6,107.3 657.7,107.2 662.9,107.0 668.0,106.8 673.2,106.6 678.3,106.5 683.5,106.3 688.6,106.1 693.8,106.0 698.9,105.8 704.1,105.7 709.2,105.5 714.4,105.4 719.5,105.2 724.6,105.1 729.8,105.0 734.9,104.8 740.1,104.7 745.2,104.6 750.4,104.4 755.5,104.3 760.7,104.2 765.8,104.1 771.0,104.0 776.1,103.9" fill="none" stroke="#3867a6" stroke-width="3.0" stroke-linecap="round"/>
<polyline points="771.0,104.0 765.8,104.1 760.7,104.2 755.5,104.3 750.4,104.4 745.2,104.6 740.1,104.7 734.9,104.8 729.8,105.0 724.6,105.1 719.5,105.2 714.4,105.4 709.2,105.5 704.1,105.7 698.9,105.8 693.8,106.0 688.6,106.1 683.5,106.3 678.3,106.5 673.2,106.6 668.0,106.8 662.9,107.0 657.7,107.2 652.6,107.3 647.4,107.5 642.3,107.7 637.1,107.9 632.0,108.1 626.9,108.3 621.7,108.6 616.6,108.8 611.4,109.0 606.3,109.2 601.1,109.5 596.0,109.7 590.8,110.0 585.7,110.2 580.5,110.5 575.4,110.7 570.2,111.0 565.1,111.3 559.9,111.6 554.8,111.9 549.6,112.2 544.5,112.5 539.4,112.8 534.2,113.1 529.1,113.5 523.9,113.8 518.8,114.2 513.6,114.6 508.5,114.9 503.3,115.3 498.2,115.7 493.0,116.2 487.9,116.6 482.7,117.0 477.6,117.5 472.4,118.0 467.3,118.4 462.1,119.0 457.0,119.5 451.9,120.0 446.7,120.6 441.6,121.2 436.4,121.8 431.3,122.4 426.1,123.0 421.0,123.7 415.8,124.4 410.7,125.2 405.5,126.0 400.4,126.8 395.2,127.6 390.1,128.5 384.9,129.4 379.8,130.4 374.6,131.5 369.5,132.6 364.4,133.8" fill="none" stroke="#7658a5" stroke-width="3.0" stroke-linecap="round" stroke-dasharray="4 4"/>
<circle cx="364.4" cy="474.0" r="5" fill="#3867a6"/>
<circle cx="776.1" cy="103.9" r="5" fill="#3867a6"/>
<circle cx="364.4" cy="133.8" r="5" fill="#7658a5"/>
<text x="460.0" y="522" font-family="Inter, &quot;Helvetica Neue&quot;, Arial, sans-serif" font-size="13" fill="#171411" text-anchor="middle">total fashion field b = h + z</text>
<text x="30" y="280.0" font-family="Inter, &quot;Helvetica Neue&quot;, Arial, sans-serif" font-size="13" fill="#171411" transform="rotate(-90 30 280.0)" text-anchor="middle">settled taste m</text>
<rect x="616" y="96" width="224" height="92" fill="#ffffff" stroke="#e7dfd3"/>
<text x="628" y="118" font-family="Inter, &quot;Helvetica Neue&quot;, Arial, sans-serif" font-size="12" fill="#007f83" font-weight="800">stable settling branches</text>
<text x="628" y="139" font-family="Inter, &quot;Helvetica Neue&quot;, Arial, sans-serif" font-size="12" fill="#c7831f" font-weight="800">unstable separator</text>
<text x="628" y="160" font-family="Inter, &quot;Helvetica Neue&quot;, Arial, sans-serif" font-size="12" fill="#3867a6" font-weight="800">shock arrives</text>
<text x="628" y="181" font-family="Inter, &quot;Helvetica Neue&quot;, Arial, sans-serif" font-size="12" fill="#7658a5" font-weight="800">shock removed</text>
<text x="36" y="538" font-family="Inter, &quot;Helvetica Neue&quot;, Arial, sans-serif" font-size="10.5" fill="#5f5a52">Source: stylized mean-field simulation; see Appendix B and replication scripts.</text>
</svg>
