<svg xmlns="http://www.w3.org/2000/svg" width="920" height="560" viewBox="0 0 920 560">
<rect width="100%" height="100%" fill="#ffffff"/>
<text x="34" y="34" font-family="Arial, sans-serif" font-size="22" font-weight="700" fill="#18212f">Mean-Field Fashion Closure Has Hysteresis</text>
<text x="34" y="58" font-family="Arial, sans-serif" font-size="13" fill="#526173">m = tanh(beta(Jm+b)); beta=2.0, J=0.8, material field h=-0.08</text>
<line x1="105.5" y1="72" x2="105.5" y2="488" stroke="#e3e8ef"/>
<text x="105.52941176470591" y="522" font-family="Arial, sans-serif" font-size="12" fill="#526173" text-anchor="middle">-0.30</text>
<line x1="282.0" y1="72" x2="282.0" y2="488" stroke="#e3e8ef"/>
<text x="282.00000000000006" y="522" font-family="Arial, sans-serif" font-size="12" fill="#526173" text-anchor="middle">-0.15</text>
<line x1="458.5" y1="72" x2="458.5" y2="488" stroke="#e3e8ef"/>
<text x="458.47058823529414" y="522" font-family="Arial, sans-serif" font-size="12" fill="#526173" text-anchor="middle">0.00</text>
<line x1="634.9" y1="72" x2="634.9" y2="488" stroke="#e3e8ef"/>
<text x="634.9411764705882" y="522" font-family="Arial, sans-serif" font-size="12" fill="#526173" text-anchor="middle">0.15</text>
<line x1="811.4" y1="72" x2="811.4" y2="488" stroke="#e3e8ef"/>
<text x="811.4117647058824" y="522" font-family="Arial, sans-serif" font-size="12" fill="#526173" text-anchor="middle">0.30</text>
<line x1="82" y1="488.0" x2="882" y2="488.0" stroke="#e3e8ef"/>
<text x="62" y="492.0" font-family="Arial, sans-serif" font-size="12" fill="#526173" text-anchor="end">-1.0</text>
<line x1="82" y1="384.0" x2="882" y2="384.0" stroke="#e3e8ef"/>
<text x="62" y="388.0" font-family="Arial, sans-serif" font-size="12" fill="#526173" text-anchor="end">-0.5</text>
<line x1="82" y1="280.0" x2="882" y2="280.0" stroke="#e3e8ef"/>
<text x="62" y="284.0" font-family="Arial, sans-serif" font-size="12" fill="#526173" text-anchor="end">0.0</text>
<line x1="82" y1="176.0" x2="882" y2="176.0" stroke="#e3e8ef"/>
<text x="62" y="180.0" font-family="Arial, sans-serif" font-size="12" fill="#526173" text-anchor="end">0.5</text>
<line x1="82" y1="72.0" x2="882" y2="72.0" stroke="#e3e8ef"/>
<text x="62" y="76.0" font-family="Arial, sans-serif" font-size="12" fill="#526173" text-anchor="end">1.0</text>
<polyline points="82.0,483.0 85.1,482.9 88.2,482.9 91.2,482.8 94.3,482.7 97.4,482.7 100.5,482.6 103.5,482.6 106.6,482.5 109.7,482.4 112.8,482.4 115.8,482.3 118.9,482.2 122.0,482.2 125.1,482.1 128.2,482.0 131.2,482.0 134.3,481.9 137.4,481.8 140.5,481.8 143.5,481.7 146.6,481.6 149.7,481.5 152.8,481.5 155.8,481.4 158.9,481.3 162.0,481.2 165.1,481.2 168.2,481.1 171.2,481.0 174.3,480.9 177.4,480.8 180.5,480.8 183.5,480.7 186.6,480.6 189.7,480.5 192.8,480.4 195.8,480.3 198.9,480.2 202.0,480.2 205.1,480.1 208.2,480.0 211.2,479.9 214.3,479.8 217.4,479.7 220.5,479.6 223.5,479.5 226.6,479.4 229.7,479.3 232.8,479.2 235.8,479.1 238.9,479.0 242.0,478.9 245.1,478.7 248.2,478.6 251.2,478.5 254.3,478.4 257.4,478.3 260.5,478.2 263.5,478.1 266.6,477.9 269.7,477.8 272.8,477.7 275.8,477.6 278.9,477.4 282.0,477.3 285.1,477.2 288.2,477.0 291.2,476.9 294.3,476.8 297.4,476.6 300.5,476.5 303.5,476.4 303.5,143.0 306.6,476.2 306.6,138.0 309.7,476.1 309.7,134.5 312.8,475.9 312.8,131.8 315.8,475.8 315.8,129.4 318.9,475.6 318.9,127.4 322.0,475.5 322.0,125.6 325.1,475.3 325.1,123.9 328.2,475.1 328.2,122.4 331.2,475.0 331.2,121.0 334.3,474.8 334.3,119.7 337.4,474.6 337.4,118.5 340.5,474.5 340.5,117.3 343.5,474.3 343.5,116.2 346.6,474.1 346.6,115.2 349.7,473.9 349.7,114.2 352.8,473.8 352.8,113.3 355.8,473.6 355.8,112.4 358.9,473.4 358.9,111.6 362.0,473.2 362.0,110.7 365.1,473.0 365.1,110.0 368.2,472.8 368.2,109.2 371.2,472.6 371.2,108.5 374.3,472.4 374.3,107.8 377.4,472.2 377.4,107.1 380.5,472.0 380.5,106.4 383.5,471.8 383.5,105.8 386.6,471.6 386.6,105.2 389.7,471.4 389.7,104.6 392.8,471.1 392.8,104.0 395.8,470.9 395.8,103.5 398.9,470.7 398.9,102.9 402.0,470.4 402.0,102.4 405.1,470.2 405.1,101.9 408.2,470.0 408.2,101.4 411.2,469.7 411.2,100.9 414.3,469.5 414.3,100.4 417.4,469.2 417.4,100.0 420.5,468.9 420.5,99.5 423.5,468.7 423.5,99.1 426.6,468.4 426.6,98.6 429.7,468.1 429.7,98.2 432.8,467.8 432.8,97.8 435.8,467.6 435.8,97.4 438.9,467.3 438.9,97.0 442.0,467.0 442.0,96.7 445.1,466.7 445.1,96.3 448.2,466.3 448.2,95.9 451.2,466.0 451.2,95.6 454.3,465.7 454.3,95.2 457.4,465.4 457.4,94.9 460.5,465.0 460.5,94.5 463.5,464.7 463.5,94.2 466.6,464.3 466.6,93.9 469.7,464.0 469.7,93.6 472.8,463.6 472.8,93.3 475.8,463.2 475.8,93.0 478.9,462.9 478.9,92.7 482.0,462.5 482.0,92.4 485.1,462.1 485.1,92.1 488.2,461.6 488.2,91.8 491.2,461.2 491.2,91.5 494.3,460.8 494.3,91.3 497.4,460.4 497.4,91.0 500.5,459.9 500.5,90.7 503.5,459.4 503.5,90.5 506.6,459.0 506.6,90.2 509.7,458.5 509.7,90.0 512.8,458.0 512.8,89.7 515.8,457.4 515.8,89.5 518.9,456.9 518.9,89.3 522.0,456.4 522.0,89.0 525.1,455.8 525.1,88.8 528.2,455.2 528.2,88.6 531.2,454.6 531.2,88.4 534.3,454.0 534.3,88.1 537.4,453.4 537.4,87.9 540.5,452.7 540.5,87.7 543.5,452.0 543.5,87.5 546.6,451.3 546.6,87.3 549.7,450.6 549.7,87.1 552.8,449.8 552.8,86.9 555.8,449.0 555.8,86.7 558.9,448.2 558.9,86.5 562.0,447.3 562.0,86.4 565.1,446.4 565.1,86.2 568.2,445.5 568.2,86.0 571.2,444.5 571.2,85.8 574.3,443.4 574.3,85.6 577.4,442.3 577.4,85.5 580.5,441.2 580.5,85.3 583.5,439.9 583.5,85.1 586.6,438.6 586.6,85.0 589.7,437.2 589.7,84.8 592.8,435.6 592.8,84.7 595.8,433.9 595.8,84.5 598.9,432.0 598.9,84.3 602.0,429.9 602.0,84.2 605.1,427.5 605.1,84.0 608.2,424.5 608.2,83.9 611.2,420.8 611.2,83.7 614.3,414.8 614.3,83.6 617.4,83.5 620.5,83.3 623.5,83.2 626.6,83.0 629.7,82.9 632.8,82.8 635.8,82.6 638.9,82.5 642.0,82.4 645.1,82.3 648.2,82.1 651.2,82.0 654.3,81.9 657.4,81.8 660.5,81.7 663.5,81.6 666.6,81.4 669.7,81.3 672.8,81.2 675.8,81.1 678.9,81.0 682.0,80.9 685.1,80.8 688.2,80.7 691.2,80.6 694.3,80.5 697.4,80.4 700.5,80.3 703.5,80.2 706.6,80.1 709.7,80.0 712.8,79.9 715.8,79.8 718.9,79.7 722.0,79.6 725.1,79.6 728.2,79.5 731.2,79.4 734.3,79.3 737.4,79.2 740.5,79.1 743.5,79.0 746.6,79.0 749.7,78.9 752.8,78.8 755.8,78.7 758.9,78.7 762.0,78.6 765.1,78.5 768.2,78.4 771.2,78.4 774.3,78.3 777.4,78.2 780.5,78.1 783.5,78.1 786.6,78.0 789.7,77.9 792.8,77.9 795.8,77.8 798.9,77.7 802.0,77.7 805.1,77.6 808.2,77.5 811.2,77.5 814.3,77.4 817.4,77.4 820.5,77.3 823.5,77.2 826.6,77.2 829.7,77.1 832.8,77.1 835.8,77.0 838.9,77.0 842.0,76.9 845.1,76.9 848.2,76.8 851.2,76.7 854.3,76.7 857.4,76.6 860.5,76.6 863.5,76.5 866.6,76.5 869.7,76.4 872.8,76.4 875.8,76.3 878.9,76.3 882.0,76.2" fill="none" stroke="#236f73" stroke-width="3.0" stroke-linecap="round"/>
<polyline points="303.5,163.2 306.6,169.5 309.7,174.2 312.8,178.3 315.8,181.9 318.9,185.2 322.0,188.3 325.1,191.3 328.2,194.1 331.2,196.8 334.3,199.4 337.4,202.0 340.5,204.4 343.5,206.8 346.6,209.2 349.7,211.5 352.8,213.7 355.8,215.9 358.9,218.1 362.0,220.3 365.1,222.4 368.2,224.5 371.2,226.5 374.3,228.6 377.4,230.6 380.5,232.6 383.5,234.6 386.6,236.6 389.7,238.5 392.8,240.5 395.8,242.4 398.9,244.3 402.0,246.2 405.1,248.1 408.2,250.0 411.2,251.9 414.3,253.7 417.4,255.6 420.5,257.5 423.5,259.3 426.6,261.1 429.7,263.0 432.8,264.8 435.8,266.6 438.9,268.5 442.0,270.3 445.1,272.1 448.2,273.9 451.2,275.7 454.3,277.5 457.4,279.4 460.5,281.2 463.5,283.0 466.6,284.8 469.7,286.6 472.8,288.4 475.8,290.3 478.9,292.1 482.0,293.9 485.1,295.7 488.2,297.6 491.2,299.4 494.3,301.2 497.4,303.1 500.5,304.9 503.5,306.8 506.6,308.7 509.7,310.6 512.8,312.4 515.8,314.3 518.9,316.2 522.0,318.2 525.1,320.1 528.2,322.0 531.2,324.0 534.3,326.0 537.4,328.0 540.5,330.0 543.5,332.0 546.6,334.1 549.7,336.1 552.8,338.2 555.8,340.4 558.9,342.5 562.0,344.7 565.1,346.9 568.2,349.2 571.2,351.5 574.3,353.9 577.4,356.3 580.5,358.8 583.5,361.3 586.6,364.0 589.7,366.7 592.8,369.6 595.8,372.6 598.9,375.7 602.0,379.1 605.1,382.9 608.2,387.1 611.2,392.2 614.3,399.4" fill="none" stroke="#b7791f" stroke-width="2.0" stroke-linecap="round" stroke-dasharray="6 5"/>
<polyline points="364.4,473.1 369.5,472.7 374.6,472.4 379.8,472.0 384.9,471.7 390.1,471.3 395.2,471.0 400.4,470.6 405.5,470.2 410.7,469.8 415.8,469.3 421.0,468.9 426.1,468.4 431.3,468.0 436.4,467.5 441.6,467.0 446.7,466.5 451.9,466.0 457.0,465.4 462.1,464.8 467.3,464.3 472.4,463.7 477.6,463.0 482.7,462.4 487.9,461.7 493.0,461.0 498.2,460.2 503.3,459.5 508.5,458.7 513.6,457.8 518.8,456.9 523.9,456.0 529.1,455.0 534.2,454.0 539.4,452.9 544.5,451.8 549.6,450.6 554.8,449.3 559.9,447.9 565.1,446.4 570.2,444.8 575.4,443.1 580.5,441.1 585.7,439.0 590.8,436.6 596.0,433.8 601.1,430.6 606.3,426.4 611.4,420.5 616.6,83.5 621.7,83.3 626.9,83.0 632.0,82.8 637.1,82.6 642.3,82.4 647.4,82.2 652.6,82.0 657.7,81.8 662.9,81.6 668.0,81.4 673.2,81.2 678.3,81.0 683.5,80.8 688.6,80.7 693.8,80.5 698.9,80.3 704.1,80.2 709.2,80.0 714.4,79.9 719.5,79.7 724.6,79.6 729.8,79.4 734.9,79.3 740.1,79.1 745.2,79.0 750.4,78.9 755.5,78.7 760.7,78.6 765.8,78.5 771.0,78.4 776.1,78.2" fill="none" stroke="#2f5f9f" stroke-width="3.0" stroke-linecap="round"/>
<polyline points="771.0,78.4 765.8,78.5 760.7,78.6 755.5,78.7 750.4,78.9 745.2,79.0 740.1,79.1 734.9,79.3 729.8,79.4 724.6,79.6 719.5,79.7 714.4,79.9 709.2,80.0 704.1,80.2 698.9,80.3 693.8,80.5 688.6,80.7 683.5,80.8 678.3,81.0 673.2,81.2 668.0,81.4 662.9,81.6 657.7,81.8 652.6,82.0 647.4,82.2 642.3,82.4 637.1,82.6 632.0,82.8 626.9,83.0 621.7,83.3 616.6,83.5 611.4,83.7 606.3,84.0 601.1,84.2 596.0,84.5 590.8,84.8 585.7,85.0 580.5,85.3 575.4,85.6 570.2,85.9 565.1,86.2 559.9,86.5 554.8,86.8 549.6,87.1 544.5,87.5 539.4,87.8 534.2,88.2 529.1,88.5 523.9,88.9 518.8,89.3 513.6,89.7 508.5,90.1 503.3,90.5 498.2,90.9 493.0,91.4 487.9,91.8 482.7,92.3 477.6,92.8 472.4,93.3 467.3,93.8 462.1,94.3 457.0,94.9 451.9,95.5 446.7,96.1 441.6,96.7 436.4,97.4 431.3,98.0 426.1,98.7 421.0,99.4 415.8,100.2 410.7,101.0 405.5,101.8 400.4,102.7 395.2,103.6 390.1,104.5 384.9,105.5 379.8,106.6 374.6,107.7 369.5,108.9 364.4,110.1" fill="none" stroke="#6b5a8e" stroke-width="3.0" stroke-linecap="round" stroke-dasharray="4 4"/>
<circle cx="364.4" cy="473.1" r="5" fill="#2f5f9f"/>
<circle cx="776.1" cy="78.2" r="5" fill="#2f5f9f"/>
<circle cx="364.4" cy="110.1" r="5" fill="#6b5a8e"/>
<text x="460.0" y="548" font-family="Arial, sans-serif" font-size="13" fill="#18212f" text-anchor="middle">total fashion field b = h + z</text>
<text x="18" y="280.0" font-family="Arial, sans-serif" font-size="13" fill="#18212f" transform="rotate(-90 18 280.0)" text-anchor="middle">adoption / taste m</text>
<text x="625" y="104" font-family="Arial, sans-serif" font-size="12" fill="#236f73" font-weight="700">stable closure branches</text>
<text x="625" y="125" font-family="Arial, sans-serif" font-size="12" fill="#b7791f" font-weight="700">unstable separator</text>
<text x="625" y="146" font-family="Arial, sans-serif" font-size="12" fill="#2f5f9f" font-weight="700">shock up</text>
<text x="625" y="167" font-family="Arial, sans-serif" font-size="12" fill="#6b5a8e" font-weight="700">shock removed</text>
</svg>
