<svg xmlns="http://www.w3.org/2000/svg" width="940" height="670" viewBox="0 0 940 670">
<rect width="100%" height="100%" fill="#fffaf2"/>
<rect x="18" y="18" width="904" height="634" rx="0" fill="#ffffff" stroke="#eadfce"/>
<line x1="18" y1="18" x2="922" y2="18" stroke="#d5412f" stroke-width="5"/>
<text x="36" y="44" font-family="Inter, &quot;Helvetica Neue&quot;, Arial, sans-serif" font-size="22" font-weight="800" fill="#171411">Why A Rational Choice Can Become A Trap</text>
<text x="36" y="68" font-family="Inter, &quot;Helvetica Neue&quot;, Arial, sans-serif" font-size="13" fill="#5f5a52">Fast payoff formation controls substitute use; substitute use controls the slow capacity stock</text>
<line x1="36" y1="82" x2="904" y2="82" stroke="#e7dfd3" stroke-width="1"/>
<text x="78" y="98" font-family="Inter, &quot;Helvetica Neue&quot;, Arial, sans-serif" font-size="14" font-weight="800" fill="#171411">A. What the induced payoff makes attractive</text>
<rect x="78" y="118" width="375.0" height="420" fill="#ffffff" stroke="#e7dfd3"/>
<line x1="78.0" y1="118" x2="78.0" y2="538" stroke="#e7dfd3" stroke-width="1"/>
<text x="78.0" y="563" font-family="Inter, &quot;Helvetica Neue&quot;, Arial, sans-serif" font-size="11" fill="#5f5a52" text-anchor="middle">0</text>
<line x1="171.8" y1="118" x2="171.8" y2="538" stroke="#e7dfd3" stroke-width="1"/>
<text x="171.75" y="563" font-family="Inter, &quot;Helvetica Neue&quot;, Arial, sans-serif" font-size="11" fill="#5f5a52" text-anchor="middle">0.25</text>
<line x1="265.5" y1="118" x2="265.5" y2="538" stroke="#e7dfd3" stroke-width="1"/>
<text x="265.5" y="563" font-family="Inter, &quot;Helvetica Neue&quot;, Arial, sans-serif" font-size="11" fill="#5f5a52" text-anchor="middle">0.5</text>
<line x1="359.2" y1="118" x2="359.2" y2="538" stroke="#e7dfd3" stroke-width="1"/>
<text x="359.25" y="563" font-family="Inter, &quot;Helvetica Neue&quot;, Arial, sans-serif" font-size="11" fill="#5f5a52" text-anchor="middle">0.75</text>
<line x1="453.0" y1="118" x2="453.0" y2="538" stroke="#e7dfd3" stroke-width="1"/>
<text x="453.0" y="563" font-family="Inter, &quot;Helvetica Neue&quot;, Arial, sans-serif" font-size="11" fill="#5f5a52" text-anchor="middle">1</text>
<text x="265.5" y="589" font-family="Inter, &quot;Helvetica Neue&quot;, Arial, sans-serif" font-size="12" fill="#5f5a52" text-anchor="middle">material capacity K</text>
<text x="521.0" y="98" font-family="Inter, &quot;Helvetica Neue&quot;, Arial, sans-serif" font-size="14" font-weight="800" fill="#171411">B. What that choice does to capacity</text>
<rect x="521.0" y="118" width="375.0" height="420" fill="#ffffff" stroke="#e7dfd3"/>
<line x1="521.0" y1="118" x2="521.0" y2="538" stroke="#e7dfd3" stroke-width="1"/>
<text x="521.0" y="563" font-family="Inter, &quot;Helvetica Neue&quot;, Arial, sans-serif" font-size="11" fill="#5f5a52" text-anchor="middle">0</text>
<line x1="614.8" y1="118" x2="614.8" y2="538" stroke="#e7dfd3" stroke-width="1"/>
<text x="614.75" y="563" font-family="Inter, &quot;Helvetica Neue&quot;, Arial, sans-serif" font-size="11" fill="#5f5a52" text-anchor="middle">0.25</text>
<line x1="708.5" y1="118" x2="708.5" y2="538" stroke="#e7dfd3" stroke-width="1"/>
<text x="708.5" y="563" font-family="Inter, &quot;Helvetica Neue&quot;, Arial, sans-serif" font-size="11" fill="#5f5a52" text-anchor="middle">0.5</text>
<line x1="802.2" y1="118" x2="802.2" y2="538" stroke="#e7dfd3" stroke-width="1"/>
<text x="802.25" y="563" font-family="Inter, &quot;Helvetica Neue&quot;, Arial, sans-serif" font-size="11" fill="#5f5a52" text-anchor="middle">0.75</text>
<line x1="896.0" y1="118" x2="896.0" y2="538" stroke="#e7dfd3" stroke-width="1"/>
<text x="896.0" y="563" font-family="Inter, &quot;Helvetica Neue&quot;, Arial, sans-serif" font-size="11" fill="#5f5a52" text-anchor="middle">1</text>
<text x="708.5" y="589" font-family="Inter, &quot;Helvetica Neue&quot;, Arial, sans-serif" font-size="12" fill="#5f5a52" text-anchor="middle">material capacity K</text>
<line x1="78" y1="538.0" x2="453.0" y2="538.0" stroke="#e7dfd3" stroke-width="1"/>
<text x="66" y="542.0" font-family="Inter, &quot;Helvetica Neue&quot;, Arial, sans-serif" font-size="11" fill="#5f5a52" text-anchor="end">0</text>
<line x1="78" y1="433.0" x2="453.0" y2="433.0" stroke="#e7dfd3" stroke-width="1"/>
<text x="66" y="437.0" font-family="Inter, &quot;Helvetica Neue&quot;, Arial, sans-serif" font-size="11" fill="#5f5a52" text-anchor="end">0.25</text>
<line x1="78" y1="328.0" x2="453.0" y2="328.0" stroke="#e7dfd3" stroke-width="1"/>
<text x="66" y="332.0" font-family="Inter, &quot;Helvetica Neue&quot;, Arial, sans-serif" font-size="11" fill="#5f5a52" text-anchor="end">0.5</text>
<line x1="78" y1="223.0" x2="453.0" y2="223.0" stroke="#e7dfd3" stroke-width="1"/>
<text x="66" y="227.0" font-family="Inter, &quot;Helvetica Neue&quot;, Arial, sans-serif" font-size="11" fill="#5f5a52" text-anchor="end">0.75</text>
<line x1="78" y1="118.0" x2="453.0" y2="118.0" stroke="#e7dfd3" stroke-width="1"/>
<text x="66" y="122.0" font-family="Inter, &quot;Helvetica Neue&quot;, Arial, sans-serif" font-size="11" fill="#5f5a52" text-anchor="end">1</text>
<text x="27" y="328.0" font-family="Inter, &quot;Helvetica Neue&quot;, Arial, sans-serif" font-size="12" fill="#5f5a52" transform="rotate(-90 27 328.0)" text-anchor="middle">substitute share</text>
<line x1="521.0" y1="345.9" x2="896.0" y2="345.9" stroke="#e7dfd3" stroke-width="1"/>
<text x="509.0" y="349.8693903927186" font-family="Inter, &quot;Helvetica Neue&quot;, Arial, sans-serif" font-size="11" fill="#5f5a52" text-anchor="end">-0.15</text>
<line x1="521.0" y1="249.8" x2="896.0" y2="249.8" stroke="#e7dfd3" stroke-width="1"/>
<text x="509.0" y="253.84928499557776" font-family="Inter, &quot;Helvetica Neue&quot;, Arial, sans-serif" font-size="11" fill="#5f5a52" text-anchor="end">0.</text>
<line x1="521.0" y1="153.8" x2="896.0" y2="153.8" stroke="#e7dfd3" stroke-width="1"/>
<text x="509.0" y="157.82917959843684" font-family="Inter, &quot;Helvetica Neue&quot;, Arial, sans-serif" font-size="11" fill="#5f5a52" text-anchor="end">0.15</text>
<line x1="521.0" y1="249.8" x2="896.0" y2="249.8" stroke="#171411" stroke-width="1.3"/>
<text x="471.0" y="328.0" font-family="Inter, &quot;Helvetica Neue&quot;, Arial, sans-serif" font-size="12" fill="#5f5a52" transform="rotate(-90 471.0 328.0)" text-anchor="middle">capacity drift</text>
<polyline points="78.0,118.0 78.8,118.0 79.5,118.0 80.2,118.0 81.0,118.0 81.8,118.0 82.5,118.0 83.2,118.0 84.0,118.0 84.8,118.0 85.5,118.0 86.2,118.0 87.0,118.0 87.8,118.0 88.5,118.0 89.2,118.0 90.0,118.0 90.8,118.0 91.5,118.0 92.2,118.0 93.0,118.0 93.8,118.0 94.5,118.0 95.2,118.0 96.0,118.0 96.8,118.0 97.5,118.0 98.2,118.0 99.0,118.0 99.8,118.0 100.5,118.0 101.2,118.0 102.0,118.0 102.8,118.0 103.5,118.0 104.2,118.0 105.0,118.0 105.8,118.0 106.5,118.0 107.2,118.0 108.0,118.0 108.8,118.0 109.5,118.0 110.2,118.0 111.0,118.0 111.8,118.0 112.5,118.0 113.2,118.1 114.0,118.1 114.8,118.1 115.5,118.1 116.2,118.1 117.0,118.1 117.8,118.1 118.5,118.1 119.2,118.1 120.0,118.1 120.8,118.1 121.5,118.1 122.2,118.1 123.0,118.1 123.8,118.1 124.5,118.1 125.2,118.1 126.0,118.1 126.8,118.1 127.5,118.1 128.2,118.1 129.0,118.1 129.8,118.1 130.5,118.1 131.2,118.1 132.0,118.1 132.8,118.1 133.5,118.1 134.2,118.1 135.0,118.1 135.8,118.1 136.5,118.2 137.2,118.2 138.0,118.2 138.8,118.2 139.5,118.2 140.2,118.2 141.0,118.2 141.8,118.2 142.5,118.2 143.2,118.2 144.0,118.2 144.8,118.2 145.5,118.2 146.2,118.2 147.0,118.3 147.8,118.3 148.5,118.3 149.2,118.3 150.0,118.3 150.8,118.3 151.5,118.3 152.2,118.3 153.0,118.3 153.8,118.4 154.5,118.4 155.2,118.4 156.0,118.4 156.8,118.4 157.5,118.4 158.2,118.4 159.0,118.5 159.8,118.5 160.5,118.5 161.2,118.5 162.0,118.5 162.8,118.5 163.5,118.6 164.2,118.6 165.0,118.6 165.8,118.6 166.5,118.6 167.2,118.7 168.0,118.7 168.8,118.7 169.5,118.7 170.2,118.8 171.0,118.8 171.8,118.8 172.5,118.9 173.2,118.9 174.0,118.9 174.8,119.0 175.5,119.0 176.2,119.0 177.0,119.1 177.8,119.1 178.5,119.1 179.2,119.2 180.0,119.2 180.8,119.3 181.5,119.3 182.2,119.4 183.0,119.4 183.8,119.5 184.5,119.5 185.2,119.6 186.0,119.6 186.8,119.7 187.5,119.8 188.2,119.8 189.0,119.9 189.8,120.0 190.5,120.0 191.2,120.1 192.0,120.2 192.8,120.3 193.5,120.4 194.2,120.4 195.0,120.5 195.8,120.6 196.5,120.7 197.2,120.8 198.0,120.9 198.8,121.0 199.5,121.1 200.2,121.2 201.0,121.4 201.8,121.5 202.5,121.6 203.2,121.7 204.0,121.9 204.8,122.0 205.5,122.2 206.2,122.3 207.0,122.5 207.8,122.6 208.5,122.8 209.2,123.0 210.0,123.1 210.8,123.3 211.5,123.5 212.2,123.7 213.0,123.9 213.8,124.1 214.5,124.4 215.2,124.6 216.0,124.8 216.8,125.1 217.5,125.3 218.2,125.6 219.0,125.9 219.8,126.1 220.5,126.4 221.2,126.7 222.0,127.1 222.8,127.4 223.5,127.7 224.2,128.1 225.0,128.4 225.8,128.8 226.5,129.2 227.2,129.6 228.0,130.0 228.8,130.4 229.5,130.8 230.2,131.3 231.0,131.8 231.8,132.3 232.5,132.8 233.2,133.3 234.0,133.8 234.8,134.4 235.5,134.9 236.2,135.5 237.0,136.2 237.8,136.8 238.5,137.4 239.2,138.1 240.0,138.8 240.8,139.5 241.5,140.3 242.2,141.1 243.0,141.9 243.8,142.7 244.5,143.5 245.2,144.4 246.0,145.3 246.8,146.2 247.5,147.2 248.2,148.2 249.0,149.2 249.8,150.3 250.5,151.3 251.2,152.5 252.0,153.6 252.8,154.8 253.5,156.0 254.2,157.3 255.0,158.6 255.8,159.9 256.5,161.3 257.2,162.7 258.0,164.2 258.8,165.7 259.5,167.2 260.2,168.8 261.0,170.4 261.8,172.1 262.5,173.8 263.2,175.6 264.0,177.4 264.8,179.2 265.5,181.1 266.2,183.1 267.0,185.1 267.8,187.1 268.5,189.2 269.2,191.4 270.0,193.6 270.8,195.8 271.5,198.1 272.2,200.5 273.0,202.9 273.8,205.3 274.5,207.8 275.2,210.4 276.0,213.0 276.8,215.7 277.5,218.4 278.2,221.2 279.0,224.0 279.8,226.9 280.5,229.8 281.2,232.7 282.0,235.8 282.8,238.8 283.5,241.9 284.2,245.1 285.0,248.3 285.8,251.6 286.5,254.9 287.2,258.2 288.0,261.6 288.8,265.0 289.5,268.4 290.2,271.9 291.0,275.4 291.8,279.0 292.5,282.6 293.2,286.2 294.0,289.8 294.8,293.5 295.5,297.1 296.2,300.8 297.0,304.5 297.8,308.3 298.5,312.0 299.2,315.8 300.0,319.5 300.8,323.3 301.5,327.1 302.2,330.8 303.0,334.6 303.8,338.4 304.5,342.1 305.2,345.9 306.0,349.6 306.8,353.3 307.5,357.1 308.2,360.7 309.0,364.4 309.8,368.1 310.5,371.7 311.2,375.3 312.0,378.8 312.8,382.4 313.5,385.9 314.2,389.3 315.0,392.8 315.8,396.2 316.5,399.5 317.2,402.8 318.0,406.1 318.8,409.3 319.5,412.5 320.2,415.6 321.0,418.7 321.8,421.8 322.5,424.8 323.2,427.7 324.0,430.6 324.8,433.5 325.5,436.2 326.2,439.0 327.0,441.7 327.8,444.3 328.5,446.9 329.2,449.4 330.0,451.9 330.8,454.4 331.5,456.7 332.2,459.1 333.0,461.3 333.8,463.6 334.5,465.7 335.2,467.9 336.0,469.9 336.8,472.0 337.5,473.9 338.2,475.9 339.0,477.7 339.8,479.6 340.5,481.4 341.2,483.1 342.0,484.8 342.8,486.4 343.5,488.0 344.2,489.6 345.0,491.1 345.8,492.6 346.5,494.0 347.2,495.4 348.0,496.8 348.8,498.1 349.5,499.4 350.2,500.6 351.0,501.8 351.8,503.0 352.5,504.1 353.2,505.2 354.0,506.3 354.8,507.3 355.5,508.3 356.2,509.3 357.0,510.2 357.8,511.2 358.5,512.1 359.2,512.9 360.0,513.7 360.8,514.6 361.5,515.3 362.2,516.1 363.0,516.8 363.8,517.5 364.5,518.2 365.2,518.9 366.0,519.5 366.8,520.2 367.5,520.8 368.2,521.3 369.0,521.9 369.8,522.5 370.5,523.0 371.2,523.5 372.0,524.0 372.8,524.5 373.5,524.9 374.2,525.4 375.0,525.8 375.8,526.2 376.5,526.6 377.2,527.0 378.0,527.4 378.8,527.8 379.5,528.1 380.2,528.5 381.0,528.8 381.8,529.1 382.5,529.4 383.2,529.7 384.0,530.0 384.8,530.3 385.5,530.5 386.2,530.8 387.0,531.1 387.8,531.3 388.5,531.5 389.2,531.7 390.0,532.0 390.8,532.2 391.5,532.4 392.2,532.6 393.0,532.8 393.8,532.9 394.5,533.1 395.2,533.3 396.0,533.5 396.8,533.6 397.5,533.8 398.2,533.9 399.0,534.1 399.8,534.2 400.5,534.3 401.2,534.5 402.0,534.6 402.8,534.7 403.5,534.8 404.2,534.9 405.0,535.0 405.8,535.1 406.5,535.2 407.2,535.3 408.0,535.4 408.8,535.5 409.5,535.6 410.2,535.7 411.0,535.8 411.8,535.9 412.5,535.9 413.2,536.0 414.0,536.1 414.8,536.1 415.5,536.2 416.2,536.3 417.0,536.3 417.8,536.4 418.5,536.4 419.2,536.5 420.0,536.5 420.8,536.6 421.5,536.6 422.2,536.7 423.0,536.7 423.8,536.8 424.5,536.8 425.2,536.9 426.0,536.9 426.8,536.9 427.5,537.0 428.2,537.0 429.0,537.1 429.8,537.1 430.5,537.1 431.2,537.2 432.0,537.2 432.8,537.2 433.5,537.2 434.2,537.3 435.0,537.3 435.8,537.3 436.5,537.3 437.2,537.4 438.0,537.4 438.8,537.4 439.5,537.4 440.2,537.4 441.0,537.5 441.8,537.5 442.5,537.5 443.2,537.5 444.0,537.5 444.8,537.6 445.5,537.6 446.2,537.6 447.0,537.6 447.8,537.6 448.5,537.6 449.2,537.6 450.0,537.7 450.8,537.7 451.5,537.7 452.2,537.7 453.0,537.7" fill="none" stroke="#c74332" stroke-width="3.4" stroke-linejoin="round" stroke-linecap="round"/>
<polyline points="521.0,226.2 521.8,227.0 522.5,227.8 523.2,228.6 524.0,229.4 524.8,230.2 525.5,231.0 526.2,231.7 527.0,232.5 527.8,233.2 528.5,233.9 529.2,234.6 530.0,235.3 530.8,235.9 531.5,236.6 532.2,237.2 533.0,237.8 533.8,238.5 534.5,239.0 535.2,239.6 536.0,240.2 536.8,240.8 537.5,241.3 538.2,241.8 539.0,242.4 539.8,242.9 540.5,243.4 541.2,243.9 542.0,244.3 542.8,244.8 543.5,245.2 544.2,245.7 545.0,246.1 545.8,246.5 546.5,246.9 547.2,247.3 548.0,247.6 548.8,248.0 549.5,248.4 550.2,248.7 551.0,249.0 551.8,249.3 552.5,249.6 553.2,249.9 554.0,250.2 554.8,250.5 555.5,250.8 556.2,251.0 557.0,251.2 557.8,251.5 558.5,251.7 559.2,251.9 560.0,252.1 560.8,252.3 561.5,252.5 562.2,252.6 563.0,252.8 563.8,252.9 564.5,253.1 565.2,253.2 566.0,253.3 566.8,253.4 567.5,253.5 568.2,253.6 569.0,253.7 569.8,253.8 570.5,253.8 571.2,253.9 572.0,253.9 572.8,254.0 573.5,254.0 574.2,254.0 575.0,254.0 575.8,254.0 576.5,254.0 577.2,254.0 578.0,254.0 578.8,253.9 579.5,253.9 580.2,253.8 581.0,253.8 581.8,253.7 582.5,253.7 583.2,253.6 584.0,253.5 584.8,253.4 585.5,253.3 586.2,253.2 587.0,253.1 587.8,252.9 588.5,252.8 589.2,252.7 590.0,252.5 590.8,252.4 591.5,252.2 592.2,252.1 593.0,251.9 593.8,251.7 594.5,251.5 595.2,251.4 596.0,251.2 596.8,251.0 597.5,250.7 598.2,250.5 599.0,250.3 599.8,250.1 600.5,249.9 601.2,249.6 602.0,249.4 602.8,249.1 603.5,248.9 604.2,248.6 605.0,248.4 605.8,248.1 606.5,247.8 607.2,247.5 608.0,247.3 608.8,247.0 609.5,246.7 610.2,246.4 611.0,246.1 611.8,245.8 612.5,245.5 613.2,245.2 614.0,244.8 614.8,244.5 615.5,244.2 616.2,243.9 617.0,243.5 617.8,243.2 618.5,242.8 619.2,242.5 620.0,242.2 620.8,241.8 621.5,241.4 622.2,241.1 623.0,240.7 623.8,240.4 624.5,240.0 625.2,239.6 626.0,239.2 626.8,238.9 627.5,238.5 628.2,238.1 629.0,237.7 629.8,237.3 630.5,236.9 631.2,236.5 632.0,236.1 632.8,235.7 633.5,235.3 634.2,234.9 635.0,234.5 635.8,234.1 636.5,233.7 637.2,233.3 638.0,232.9 638.8,232.5 639.5,232.1 640.2,231.6 641.0,231.2 641.8,230.8 642.5,230.4 643.2,229.9 644.0,229.5 644.8,229.1 645.5,228.7 646.2,228.2 647.0,227.8 647.8,227.4 648.5,226.9 649.2,226.5 650.0,226.0 650.8,225.6 651.5,225.2 652.2,224.7 653.0,224.3 653.8,223.8 654.5,223.4 655.2,222.9 656.0,222.5 656.8,222.0 657.5,221.6 658.2,221.1 659.0,220.7 659.8,220.2 660.5,219.8 661.2,219.3 662.0,218.9 662.8,218.4 663.5,218.0 664.2,217.5 665.0,217.0 665.8,216.6 666.5,216.1 667.2,215.7 668.0,215.2 668.8,214.7 669.5,214.3 670.2,213.8 671.0,213.3 671.8,212.9 672.5,212.4 673.2,211.9 674.0,211.4 674.8,211.0 675.5,210.5 676.2,210.0 677.0,209.5 677.8,209.0 678.5,208.6 679.2,208.1 680.0,207.6 680.8,207.1 681.5,206.6 682.2,206.1 683.0,205.6 683.8,205.1 684.5,204.6 685.2,204.1 686.0,203.6 686.8,203.1 687.5,202.6 688.2,202.1 689.0,201.5 689.8,201.0 690.5,200.5 691.2,199.9 692.0,199.4 692.8,198.9 693.5,198.3 694.2,197.8 695.0,197.2 695.8,196.7 696.5,196.1 697.2,195.5 698.0,195.0 698.8,194.4 699.5,193.8 700.2,193.2 701.0,192.6 701.8,192.0 702.5,191.4 703.2,190.8 704.0,190.2 704.8,189.5 705.5,188.9 706.2,188.3 707.0,187.6 707.8,187.0 708.5,186.3 709.2,185.6 710.0,185.0 710.8,184.3 711.5,183.6 712.2,182.9 713.0,182.2 713.8,181.5 714.5,180.8 715.2,180.0 716.0,179.3 716.8,178.6 717.5,177.8 718.2,177.1 719.0,176.3 719.8,175.5 720.5,174.7 721.2,174.0 722.0,173.2 722.8,172.4 723.5,171.6 724.2,170.8 725.0,169.9 725.8,169.1 726.5,168.3 727.2,167.5 728.0,166.6 728.8,165.8 729.5,165.0 730.2,164.1 731.0,163.3 731.8,162.4 732.5,161.6 733.2,160.7 734.0,159.9 734.8,159.1 735.5,158.2 736.2,157.4 737.0,156.5 737.8,155.7 738.5,154.9 739.2,154.0 740.0,153.2 740.8,152.4 741.5,151.6 742.2,150.8 743.0,150.0 743.8,149.2 744.5,148.5 745.2,147.7 746.0,147.0 746.8,146.2 747.5,145.5 748.2,144.8 749.0,144.1 749.8,143.5 750.5,142.8 751.2,142.2 752.0,141.6 752.8,141.0 753.5,140.4 754.2,139.8 755.0,139.3 755.8,138.8 756.5,138.3 757.2,137.8 758.0,137.4 758.8,137.0 759.5,136.6 760.2,136.2 761.0,135.9 761.8,135.6 762.5,135.3 763.2,135.0 764.0,134.8 764.8,134.6 765.5,134.4 766.2,134.3 767.0,134.2 767.8,134.1 768.5,134.0 769.2,134.0 770.0,134.0 770.8,134.0 771.5,134.1 772.2,134.2 773.0,134.3 773.8,134.5 774.5,134.7 775.2,134.9 776.0,135.2 776.8,135.4 777.5,135.8 778.2,136.1 779.0,136.5 779.8,136.9 780.5,137.3 781.2,137.8 782.0,138.3 782.8,138.8 783.5,139.4 784.2,140.0 785.0,140.6 785.8,141.2 786.5,141.9 787.2,142.6 788.0,143.3 788.8,144.1 789.5,144.9 790.2,145.7 791.0,146.6 791.8,147.5 792.5,148.4 793.2,149.3 794.0,150.3 794.8,151.3 795.5,152.3 796.2,153.4 797.0,154.5 797.8,155.6 798.5,156.7 799.2,157.9 800.0,159.1 800.8,160.3 801.5,161.5 802.2,162.8 803.0,164.1 803.8,165.4 804.5,166.8 805.2,168.2 806.0,169.6 806.8,171.0 807.5,172.4 808.2,173.9 809.0,175.4 809.8,177.0 810.5,178.5 811.2,180.1 812.0,181.7 812.8,183.4 813.5,185.0 814.2,186.7 815.0,188.4 815.8,190.1 816.5,191.9 817.2,193.7 818.0,195.5 818.8,197.3 819.5,199.2 820.2,201.1 821.0,203.0 821.8,204.9 822.5,206.9 823.2,208.9 824.0,210.9 824.8,212.9 825.5,215.0 826.2,217.0 827.0,219.1 827.8,221.3 828.5,223.4 829.2,225.6 830.0,227.8 830.8,230.0 831.5,232.3 832.2,234.6 833.0,236.9 833.8,239.2 834.5,241.5 835.2,243.9 836.0,246.3 836.8,248.7 837.5,251.2 838.2,253.7 839.0,256.1 839.8,258.7 840.5,261.2 841.2,263.8 842.0,266.4 842.8,269.0 843.5,271.6 844.2,274.3 845.0,277.0 845.8,279.7 846.5,282.5 847.2,285.2 848.0,288.0 848.8,290.9 849.5,293.7 850.2,296.6 851.0,299.5 851.8,302.4 852.5,305.3 853.2,308.3 854.0,311.3 854.8,314.3 855.5,317.4 856.2,320.5 857.0,323.6 857.8,326.7 858.5,329.8 859.2,333.0 860.0,336.2 860.8,339.4 861.5,342.7 862.2,346.0 863.0,349.3 863.8,352.6 864.5,356.0 865.2,359.4 866.0,362.8 866.8,366.2 867.5,369.7 868.2,373.2 869.0,376.7 869.8,380.3 870.5,383.8 871.2,387.4 872.0,391.1 872.8,394.7 873.5,398.4 874.2,402.1 875.0,405.9 875.8,409.6 876.5,413.4 877.2,417.2 878.0,421.1 878.8,425.0 879.5,428.9 880.2,432.8 881.0,436.8 881.8,440.7 882.5,444.8 883.2,448.8 884.0,452.9 884.8,457.0 885.5,461.1 886.2,465.3 887.0,469.5 887.8,473.7 888.5,477.9 889.2,482.2 890.0,486.5 890.8,490.8 891.5,495.2 892.2,499.6 893.0,504.0 893.8,508.5 894.5,512.9 895.2,517.5 896.0,522.0" fill="none" stroke="#007f83" stroke-width="3.4" stroke-linejoin="round" stroke-linecap="round"/>
<line x1="110.0" y1="118" x2="110.0" y2="538" stroke="#c74332" stroke-width="1.4" stroke-dasharray="5 6" opacity="0.75"/>
<line x1="553.0" y1="118" x2="553.0" y2="538" stroke="#c74332" stroke-width="1.4" stroke-dasharray="5 6" opacity="0.75"/>
<circle cx="553.0" cy="249.8" r="6.5" fill="#c74332" stroke="#c74332" stroke-width="2"/>
<line x1="157.5" y1="118" x2="157.5" y2="538" stroke="#7658a5" stroke-width="1.4" stroke-dasharray="5 6" opacity="0.75"/>
<line x1="600.5" y1="118" x2="600.5" y2="538" stroke="#7658a5" stroke-width="1.4" stroke-dasharray="5 6" opacity="0.75"/>
<circle cx="600.5" cy="249.8" r="6.5" fill="#ffffff" stroke="#7658a5" stroke-width="2"/>
<line x1="394.1" y1="118" x2="394.1" y2="538" stroke="#007f83" stroke-width="1.4" stroke-dasharray="5 6" opacity="0.75"/>
<line x1="837.1" y1="118" x2="837.1" y2="538" stroke="#007f83" stroke-width="1.4" stroke-dasharray="5 6" opacity="0.75"/>
<circle cx="837.1" cy="249.8" r="6.5" fill="#007f83" stroke="#007f83" stroke-width="2"/>
<text x="94" y="146" font-family="Inter, &quot;Helvetica Neue&quot;, Arial, sans-serif" font-size="12" font-weight="800" fill="#c74332">low capacity: substitute is attractive</text>
<text x="437.0" y="520" font-family="Inter, &quot;Helvetica Neue&quot;, Arial, sans-serif" font-size="12" font-weight="800" fill="#007f83" text-anchor="end">high capacity: outside option works</text>
<text x="539.0" y="283.84928499557776" font-family="Inter, &quot;Helvetica Neue&quot;, Arial, sans-serif" font-size="12" font-weight="800" fill="#c74332">below zero: capacity falls</text>
<text x="878.0" y="227.84928499557776" font-family="Inter, &quot;Helvetica Neue&quot;, Arial, sans-serif" font-size="12" font-weight="800" fill="#007f83" text-anchor="end">above zero: capacity rises</text>
<circle cx="78" cy="624" r="6" fill="#c74332" stroke="#c74332" stroke-width="2"/>
<text x="92" y="628" font-family="Inter, &quot;Helvetica Neue&quot;, Arial, sans-serif" font-size="12" font-weight="800" fill="#171411">low trap</text>
<circle cx="228" cy="624" r="6" fill="#ffffff" stroke="#7658a5" stroke-width="2"/>
<text x="242" y="628" font-family="Inter, &quot;Helvetica Neue&quot;, Arial, sans-serif" font-size="12" font-weight="800" fill="#171411">threshold</text>
<circle cx="378" cy="624" r="6" fill="#007f83" stroke="#007f83" stroke-width="2"/>
<text x="392" y="628" font-family="Inter, &quot;Helvetica Neue&quot;, Arial, sans-serif" font-size="12" font-weight="800" fill="#171411">high state</text>
<text x="36" y="648" font-family="Inter, &quot;Helvetica Neue&quot;, Arial, sans-serif" font-size="10.5" fill="#5f5a52">Same baseline trap calibration. Filled dots are stable states; the open dot is the threshold.</text>
</svg>
