<svg xmlns="http://www.w3.org/2000/svg" width="940" height="560" viewBox="0 0 940 560">
<rect width="100%" height="100%" fill="#fffaf2"/>
<rect x="18" y="18" width="904" height="524" rx="0" fill="#ffffff" stroke="#eadfce"/>
<line x1="18" y1="18" x2="922" y2="18" stroke="#d5412f" stroke-width="5"/>
<text x="36" y="44" font-family="Inter, &quot;Helvetica Neue&quot;, Arial, sans-serif" font-size="22" font-weight="800" fill="#171411">Material-Capacity Feedback</text>
<text x="36" y="68" font-family="Inter, &quot;Helvetica Neue&quot;, Arial, sans-serif" font-size="13" fill="#5f5a52">A fast subjective payoff can create one stable capacity level or a low-capacity trap</text>
<line x1="36" y1="82" x2="904" y2="82" stroke="#e7dfd3" stroke-width="1"/>
<line x1="86.0" y1="104" x2="86.0" y2="478" stroke="#e7dfd3" stroke-width="1"/>
<text x="86.0" y="505" font-family="Inter, &quot;Helvetica Neue&quot;, Arial, sans-serif" font-size="11" fill="#5f5a52" text-anchor="middle">0</text>
<line x1="287.0" y1="104" x2="287.0" y2="478" stroke="#e7dfd3" stroke-width="1"/>
<text x="287.0" y="505" font-family="Inter, &quot;Helvetica Neue&quot;, Arial, sans-serif" font-size="11" fill="#5f5a52" text-anchor="middle">0.25</text>
<line x1="488.0" y1="104" x2="488.0" y2="478" stroke="#e7dfd3" stroke-width="1"/>
<text x="488.0" y="505" font-family="Inter, &quot;Helvetica Neue&quot;, Arial, sans-serif" font-size="11" fill="#5f5a52" text-anchor="middle">0.5</text>
<line x1="689.0" y1="104" x2="689.0" y2="478" stroke="#e7dfd3" stroke-width="1"/>
<text x="689.0" y="505" font-family="Inter, &quot;Helvetica Neue&quot;, Arial, sans-serif" font-size="11" fill="#5f5a52" text-anchor="middle">0.75</text>
<line x1="890.0" y1="104" x2="890.0" y2="478" stroke="#e7dfd3" stroke-width="1"/>
<text x="890.0" y="505" font-family="Inter, &quot;Helvetica Neue&quot;, Arial, sans-serif" font-size="11" fill="#5f5a52" text-anchor="middle">1</text>
<line x1="86" y1="432.4" x2="890" y2="432.4" stroke="#e7dfd3" stroke-width="1"/>
<text x="73" y="436.39024390243895" font-family="Inter, &quot;Helvetica Neue&quot;, Arial, sans-serif" font-size="11" fill="#5f5a52" text-anchor="end">-0.4</text>
<line x1="86" y1="341.2" x2="890" y2="341.2" stroke="#e7dfd3" stroke-width="1"/>
<text x="73" y="345.1707317073171" font-family="Inter, &quot;Helvetica Neue&quot;, Arial, sans-serif" font-size="11" fill="#5f5a52" text-anchor="end">-0.2</text>
<line x1="86" y1="250.0" x2="890" y2="250.0" stroke="#e7dfd3" stroke-width="1"/>
<text x="73" y="253.9512195121951" font-family="Inter, &quot;Helvetica Neue&quot;, Arial, sans-serif" font-size="11" fill="#5f5a52" text-anchor="end">0.0</text>
<line x1="86" y1="158.7" x2="890" y2="158.7" stroke="#e7dfd3" stroke-width="1"/>
<text x="73" y="162.73170731707316" font-family="Inter, &quot;Helvetica Neue&quot;, Arial, sans-serif" font-size="11" fill="#5f5a52" text-anchor="end">0.2</text>
<line x1="86" y1="250.0" x2="890" y2="250.0" stroke="#171411" stroke-width="1.3"/>
<text x="488.0" y="526" font-family="Inter, &quot;Helvetica Neue&quot;, Arial, sans-serif" font-size="12" fill="#5f5a52" text-anchor="middle">material capacity K</text>
<text x="28" y="291.0" font-family="Inter, &quot;Helvetica Neue&quot;, Arial, sans-serif" font-size="12" fill="#5f5a52" transform="rotate(-90 28 291.0)" text-anchor="middle">capacity drift Phi(K)</text>
<polyline points="86.0,197.4 88.0,198.1 90.0,198.8 92.0,199.6 94.0,200.2 96.0,200.9 98.1,201.6 100.1,202.2 102.1,202.9 104.1,203.5 106.1,204.1 108.1,204.6 110.1,205.2 112.1,205.8 114.1,206.3 116.2,206.8 118.2,207.3 120.2,207.8 122.2,208.3 124.2,208.8 126.2,209.2 128.2,209.6 130.2,210.1 132.2,210.5 134.2,210.9 136.2,211.2 138.3,211.6 140.3,212.0 142.3,212.3 144.3,212.6 146.3,212.9 148.3,213.2 150.3,213.5 152.3,213.8 154.3,214.1 156.3,214.3 158.4,214.5 160.4,214.8 162.4,215.0 164.4,215.2 166.4,215.4 168.4,215.5 170.4,215.7 172.4,215.9 174.4,216.0 176.4,216.1 178.5,216.2 180.5,216.4 182.5,216.5 184.5,216.5 186.5,216.6 188.5,216.7 190.5,216.7 192.5,216.8 194.5,216.8 196.6,216.8 198.6,216.8 200.6,216.9 202.6,216.8 204.6,216.8 206.6,216.8 208.6,216.8 210.6,216.7 212.6,216.7 214.6,216.6 216.7,216.5 218.7,216.5 220.7,216.4 222.7,216.3 224.7,216.2 226.7,216.0 228.7,215.9 230.7,215.8 232.7,215.7 234.7,215.5 236.8,215.3 238.8,215.2 240.8,215.0 242.8,214.8 244.8,214.7 246.8,214.5 248.8,214.3 250.8,214.1 252.8,213.8 254.8,213.6 256.9,213.4 258.9,213.2 260.9,212.9 262.9,212.7 264.9,212.4 266.9,212.2 268.9,211.9 270.9,211.6 272.9,211.3 274.9,211.1 276.9,210.8 279.0,210.5 281.0,210.2 283.0,209.9 285.0,209.6 287.0,209.2 289.0,208.9 291.0,208.6 293.0,208.3 295.0,207.9 297.1,207.6 299.1,207.2 301.1,206.9 303.1,206.5 305.1,206.2 307.1,205.8 309.1,205.4 311.1,205.1 313.1,204.7 315.1,204.3 317.1,203.9 319.2,203.6 321.2,203.2 323.2,202.8 325.2,202.4 327.2,202.0 329.2,201.6 331.2,201.2 333.2,200.8 335.2,200.4 337.2,199.9 339.3,199.5 341.3,199.1 343.3,198.7 345.3,198.3 347.3,197.8 349.3,197.4 351.3,197.0 353.3,196.6 355.3,196.1 357.4,195.7 359.4,195.3 361.4,194.8 363.4,194.4 365.4,193.9 367.4,193.5 369.4,193.1 371.4,192.6 373.4,192.2 375.4,191.7 377.4,191.3 379.5,190.8 381.5,190.4 383.5,189.9 385.5,189.5 387.5,189.0 389.5,188.6 391.5,188.1 393.5,187.7 395.5,187.2 397.6,186.8 399.6,186.3 401.6,185.9 403.6,185.4 405.6,185.0 407.6,184.5 409.6,184.0 411.6,183.6 413.6,183.1 415.6,182.7 417.6,182.3 419.7,181.8 421.7,181.4 423.7,180.9 425.7,180.5 427.7,180.0 429.7,179.6 431.7,179.1 433.7,178.7 435.7,178.3 437.8,177.8 439.8,177.4 441.8,177.0 443.8,176.5 445.8,176.1 447.8,175.7 449.8,175.3 451.8,174.8 453.8,174.4 455.8,174.0 457.9,173.6 459.9,173.2 461.9,172.8 463.9,172.4 465.9,172.0 467.9,171.6 469.9,171.2 471.9,170.8 473.9,170.4 475.9,170.0 477.9,169.7 480.0,169.3 482.0,168.9 484.0,168.6 486.0,168.2 488.0,167.8 490.0,167.5 492.0,167.2 494.0,166.8 496.0,166.5 498.0,166.2 500.1,165.8 502.1,165.5 504.1,165.2 506.1,164.9 508.1,164.6 510.1,164.3 512.1,164.0 514.1,163.8 516.1,163.5 518.1,163.2 520.2,163.0 522.2,162.7 524.2,162.5 526.2,162.3 528.2,162.1 530.2,161.8 532.2,161.6 534.2,161.4 536.2,161.3 538.2,161.1 540.3,160.9 542.3,160.8 544.3,160.6 546.3,160.5 548.3,160.4 550.3,160.3 552.3,160.2 554.3,160.1 556.3,160.0 558.4,159.9 560.4,159.9 562.4,159.8 564.4,159.8 566.4,159.8 568.4,159.8 570.4,159.8 572.4,159.8 574.4,159.9 576.4,159.9 578.5,160.0 580.5,160.1 582.5,160.2 584.5,160.3 586.5,160.4 588.5,160.5 590.5,160.7 592.5,160.9 594.5,161.1 596.5,161.3 598.5,161.5 600.6,161.7 602.6,162.0 604.6,162.3 606.6,162.6 608.6,162.9 610.6,163.2 612.6,163.6 614.6,163.9 616.6,164.3 618.6,164.7 620.7,165.1 622.7,165.6 624.7,166.0 626.7,166.5 628.7,167.0 630.7,167.5 632.7,168.1 634.7,168.6 636.7,169.2 638.8,169.8 640.8,170.4 642.8,171.1 644.8,171.7 646.8,172.4 648.8,173.1 650.8,173.8 652.8,174.6 654.8,175.4 656.8,176.2 658.9,177.0 660.9,177.8 662.9,178.7 664.9,179.5 666.9,180.4 668.9,181.4 670.9,182.3 672.9,183.3 674.9,184.3 676.9,185.3 679.0,186.4 681.0,187.4 683.0,188.5 685.0,189.6 687.0,190.8 689.0,191.9 691.0,193.1 693.0,194.3 695.0,195.5 697.0,196.8 699.0,198.1 701.1,199.4 703.1,200.7 705.1,202.1 707.1,203.5 709.1,204.9 711.1,206.3 713.1,207.8 715.1,209.2 717.1,210.7 719.1,212.3 721.2,213.8 723.2,215.4 725.2,217.0 727.2,218.7 729.2,220.3 731.2,222.0 733.2,223.7 735.2,225.5 737.2,227.2 739.2,229.0 741.3,230.8 743.3,232.7 745.3,234.5 747.3,236.4 749.3,238.4 751.3,240.3 753.3,242.3 755.3,244.3 757.3,246.3 759.4,248.4 761.4,250.5 763.4,252.6 765.4,254.7 767.4,256.9 769.4,259.1 771.4,261.3 773.4,263.5 775.4,265.8 777.4,268.1 779.5,270.5 781.5,272.8 783.5,275.2 785.5,277.6 787.5,280.1 789.5,282.6 791.5,285.1 793.5,287.6 795.5,290.1 797.5,292.7 799.5,295.4 801.6,298.0 803.6,300.7 805.6,303.4 807.6,306.1 809.6,308.9 811.6,311.7 813.6,314.5 815.6,317.3 817.6,320.2 819.6,323.1 821.7,326.1 823.7,329.1 825.7,332.1 827.7,335.1 829.7,338.2 831.7,341.2 833.7,344.4 835.7,347.5 837.7,350.7 839.8,353.9 841.8,357.2 843.8,360.5 845.8,363.8 847.8,367.1 849.8,370.5 851.8,373.9 853.8,377.3 855.8,380.8 857.8,384.3 859.9,387.8 861.9,391.4 863.9,395.0 865.9,398.6 867.9,402.2 869.9,405.9 871.9,409.7 873.9,413.4 875.9,417.2 877.9,421.0 880.0,424.9 882.0,428.8 884.0,432.7 886.0,436.6 888.0,440.6 890.0,444.7" fill="none" stroke="#007f83" stroke-width="3.2" stroke-linejoin="round" stroke-linecap="round"/>
<circle cx="760.9" cy="250.0" r="6.5" fill="#007f83" stroke="#007f83" stroke-width="2"/>
<line x1="650" y1="118" x2="676" y2="118" stroke="#007f83" stroke-width="4" stroke-linecap="round"/>
<text x="684" y="122" font-family="Inter, &quot;Helvetica Neue&quot;, Arial, sans-serif" font-size="12" font-weight="700" fill="#171411">self-correcting</text>
<polyline points="86.0,233.1 88.0,233.8 90.0,234.5 92.0,235.3 94.0,236.0 96.0,236.6 98.1,237.3 100.1,237.9 102.1,238.6 104.1,239.2 106.1,239.8 108.1,240.4 110.1,240.9 112.1,241.5 114.1,242.0 116.2,242.6 118.2,243.1 120.2,243.6 122.2,244.1 124.2,244.5 126.2,245.0 128.2,245.4 130.2,245.8 132.2,246.3 134.2,246.7 136.2,247.0 138.3,247.4 140.3,247.8 142.3,248.1 144.3,248.4 146.3,248.8 148.3,249.1 150.3,249.4 152.3,249.6 154.3,249.9 156.3,250.2 158.4,250.4 160.4,250.6 162.4,250.9 164.4,251.1 166.4,251.3 168.4,251.4 170.4,251.6 172.4,251.8 174.4,251.9 176.4,252.1 178.5,252.2 180.5,252.3 182.5,252.4 184.5,252.5 186.5,252.6 188.5,252.7 190.5,252.7 192.5,252.8 194.5,252.8 196.6,252.9 198.6,252.9 200.6,252.9 202.6,252.9 204.6,252.9 206.6,252.9 208.6,252.9 210.6,252.8 212.6,252.8 214.6,252.8 216.7,252.7 218.7,252.6 220.7,252.6 222.7,252.5 224.7,252.4 226.7,252.3 228.7,252.2 230.7,252.1 232.7,251.9 234.7,251.8 236.8,251.7 238.8,251.5 240.8,251.4 242.8,251.2 244.8,251.1 246.8,250.9 248.8,250.7 250.8,250.5 252.8,250.3 254.8,250.1 256.9,249.9 258.9,249.7 260.9,249.5 262.9,249.3 264.9,249.0 266.9,248.8 268.9,248.6 270.9,248.3 272.9,248.1 274.9,247.8 276.9,247.5 279.0,247.3 281.0,247.0 283.0,246.7 285.0,246.4 287.0,246.2 289.0,245.9 291.0,245.6 293.0,245.3 295.0,245.0 297.1,244.7 299.1,244.3 301.1,244.0 303.1,243.7 305.1,243.4 307.1,243.1 309.1,242.7 311.1,242.4 313.1,242.1 315.1,241.7 317.1,241.4 319.2,241.0 321.2,240.7 323.2,240.3 325.2,240.0 327.2,239.6 329.2,239.3 331.2,238.9 333.2,238.5 335.2,238.2 337.2,237.8 339.3,237.4 341.3,237.1 343.3,236.7 345.3,236.3 347.3,235.9 349.3,235.5 351.3,235.2 353.3,234.8 355.3,234.4 357.4,234.0 359.4,233.6 361.4,233.2 363.4,232.8 365.4,232.4 367.4,232.0 369.4,231.7 371.4,231.3 373.4,230.9 375.4,230.5 377.4,230.1 379.5,229.7 381.5,229.3 383.5,228.9 385.5,228.5 387.5,228.0 389.5,227.6 391.5,227.2 393.5,226.8 395.5,226.4 397.6,226.0 399.6,225.6 401.6,225.2 403.6,224.8 405.6,224.3 407.6,223.9 409.6,223.5 411.6,223.1 413.6,222.7 415.6,222.2 417.6,221.8 419.7,221.4 421.7,221.0 423.7,220.5 425.7,220.1 427.7,219.7 429.7,219.2 431.7,218.8 433.7,218.3 435.7,217.9 437.8,217.4 439.8,217.0 441.8,216.5 443.8,216.1 445.8,215.6 447.8,215.2 449.8,214.7 451.8,214.2 453.8,213.7 455.8,213.2 457.9,212.8 459.9,212.3 461.9,211.8 463.9,211.3 465.9,210.7 467.9,210.2 469.9,209.7 471.9,209.2 473.9,208.6 475.9,208.1 477.9,207.5 480.0,207.0 482.0,206.4 484.0,205.8 486.0,205.3 488.0,204.7 490.0,204.1 492.0,203.5 494.0,202.9 496.0,202.3 498.0,201.6 500.1,201.0 502.1,200.3 504.1,199.7 506.1,199.0 508.1,198.4 510.1,197.7 512.1,197.0 514.1,196.3 516.1,195.6 518.1,194.9 520.2,194.2 522.2,193.5 524.2,192.7 526.2,192.0 528.2,191.3 530.2,190.5 532.2,189.8 534.2,189.0 536.2,188.3 538.2,187.5 540.3,186.8 542.3,186.0 544.3,185.3 546.3,184.5 548.3,183.8 550.3,183.0 552.3,182.3 554.3,181.5 556.3,180.8 558.4,180.1 560.4,179.4 562.4,178.7 564.4,178.0 566.4,177.3 568.4,176.6 570.4,176.0 572.4,175.4 574.4,174.7 576.4,174.2 578.5,173.6 580.5,173.0 582.5,172.5 584.5,172.0 586.5,171.5 588.5,171.0 590.5,170.6 592.5,170.1 594.5,169.7 596.5,169.4 598.5,169.1 600.6,168.7 602.6,168.5 604.6,168.2 606.6,168.0 608.6,167.8 610.6,167.7 612.6,167.6 614.6,167.5 616.6,167.4 618.6,167.4 620.7,167.4 622.7,167.5 624.7,167.6 626.7,167.7 628.7,167.8 630.7,168.0 632.7,168.2 634.7,168.5 636.7,168.8 638.8,169.1 640.8,169.5 642.8,169.9 644.8,170.3 646.8,170.7 648.8,171.2 650.8,171.8 652.8,172.3 654.8,172.9 656.8,173.5 658.9,174.2 660.9,174.9 662.9,175.6 664.9,176.4 666.9,177.2 668.9,178.0 670.9,178.8 672.9,179.7 674.9,180.7 676.9,181.6 679.0,182.6 681.0,183.6 683.0,184.6 685.0,185.7 687.0,186.8 689.0,187.9 691.0,189.1 693.0,190.3 695.0,191.5 697.0,192.7 699.0,194.0 701.1,195.3 703.1,196.7 705.1,198.0 707.1,199.4 709.1,200.8 711.1,202.3 713.1,203.8 715.1,205.3 717.1,206.8 719.1,208.4 721.2,209.9 723.2,211.6 725.2,213.2 727.2,214.9 729.2,216.6 731.2,218.3 733.2,220.0 735.2,221.8 737.2,223.6 739.2,225.5 741.3,227.3 743.3,229.2 745.3,231.1 747.3,233.1 749.3,235.0 751.3,237.0 753.3,239.1 755.3,241.1 757.3,243.2 759.4,245.3 761.4,247.4 763.4,249.6 765.4,251.8 767.4,254.0 769.4,256.2 771.4,258.5 773.4,260.8 775.4,263.1 777.4,265.5 779.5,267.9 781.5,270.3 783.5,272.7 785.5,275.2 787.5,277.7 789.5,280.2 791.5,282.7 793.5,285.3 795.5,287.9 797.5,290.5 799.5,293.2 801.6,295.9 803.6,298.6 805.6,301.4 807.6,304.1 809.6,306.9 811.6,309.8 813.6,312.6 815.6,315.5 817.6,318.4 819.6,321.4 821.7,324.4 823.7,327.4 825.7,330.4 827.7,333.5 829.7,336.6 831.7,339.7 833.7,342.9 835.7,346.1 837.7,349.3 839.8,352.5 841.8,355.8 843.8,359.1 845.8,362.4 847.8,365.8 849.8,369.2 851.8,372.6 853.8,376.1 855.8,379.6 857.8,383.1 859.9,386.7 861.9,390.3 863.9,393.9 865.9,397.5 867.9,401.2 869.9,404.9 871.9,408.7 873.9,412.5 875.9,416.3 877.9,420.1 880.0,424.0 882.0,427.9 884.0,431.8 886.0,435.8 888.0,439.8 890.0,443.9" fill="none" stroke="#c74332" stroke-width="3.2" stroke-linejoin="round" stroke-linecap="round"/>
<circle cx="154.7" cy="250.0" r="6.5" fill="#c74332" stroke="#c74332" stroke-width="2"/>
<circle cx="256.5" cy="250.0" r="6.5" fill="#ffffff" stroke="#c74332" stroke-width="2"/>
<circle cx="763.7" cy="250.0" r="6.5" fill="#c74332" stroke="#c74332" stroke-width="2"/>
<line x1="650" y1="144" x2="676" y2="144" stroke="#c74332" stroke-width="4" stroke-linecap="round"/>
<text x="684" y="148" font-family="Inter, &quot;Helvetica Neue&quot;, Arial, sans-serif" font-size="12" font-weight="700" fill="#171411">capacity trap</text>
<polyline points="86.0,233.1 88.0,233.8 90.0,234.5 92.0,235.3 94.0,236.0 96.0,236.6 98.1,237.3 100.1,237.9 102.1,238.6 104.1,239.2 106.1,239.8 108.1,240.4 110.1,241.0 112.1,241.5 114.1,242.0 116.2,242.6 118.2,243.1 120.2,243.6 122.2,244.1 124.2,244.5 126.2,245.0 128.2,245.4 130.2,245.9 132.2,246.3 134.2,246.7 136.2,247.0 138.3,247.4 140.3,247.8 142.3,248.1 144.3,248.5 146.3,248.8 148.3,249.1 150.3,249.4 152.3,249.7 154.3,249.9 156.3,250.2 158.4,250.4 160.4,250.6 162.4,250.9 164.4,251.1 166.4,251.3 168.4,251.5 170.4,251.6 172.4,251.8 174.4,251.9 176.4,252.1 178.5,252.2 180.5,252.3 182.5,252.4 184.5,252.5 186.5,252.6 188.5,252.7 190.5,252.8 192.5,252.8 194.5,252.9 196.6,252.9 198.6,252.9 200.6,252.9 202.6,252.9 204.6,252.9 206.6,252.9 208.6,252.9 210.6,252.9 212.6,252.8 214.6,252.8 216.7,252.7 218.7,252.7 220.7,252.6 222.7,252.5 224.7,252.4 226.7,252.3 228.7,252.2 230.7,252.1 232.7,252.0 234.7,251.9 236.8,251.7 238.8,251.6 240.8,251.4 242.8,251.3 244.8,251.1 246.8,251.0 248.8,250.8 250.8,250.6 252.8,250.4 254.8,250.2 256.9,250.0 258.9,249.8 260.9,249.6 262.9,249.4 264.9,249.1 266.9,248.9 268.9,248.7 270.9,248.4 272.9,248.2 274.9,247.9 276.9,247.7 279.0,247.4 281.0,247.2 283.0,246.9 285.0,246.6 287.0,246.3 289.0,246.0 291.0,245.8 293.0,245.5 295.0,245.2 297.1,244.9 299.1,244.6 301.1,244.3 303.1,244.0 305.1,243.6 307.1,243.3 309.1,243.0 311.1,242.7 313.1,242.4 315.1,242.0 317.1,241.7 319.2,241.4 321.2,241.1 323.2,240.7 325.2,240.4 327.2,240.0 329.2,239.7 331.2,239.4 333.2,239.0 335.2,238.7 337.2,238.3 339.3,238.0 341.3,237.6 343.3,237.3 345.3,236.9 347.3,236.6 349.3,236.2 351.3,235.9 353.3,235.5 355.3,235.2 357.4,234.8 359.4,234.5 361.4,234.1 363.4,233.8 365.4,233.4 367.4,233.1 369.4,232.7 371.4,232.4 373.4,232.1 375.4,231.7 377.4,231.4 379.5,231.0 381.5,230.7 383.5,230.3 385.5,230.0 387.5,229.7 389.5,229.3 391.5,229.0 393.5,228.7 395.5,228.4 397.6,228.0 399.6,227.7 401.6,227.4 403.6,227.1 405.6,226.8 407.6,226.4 409.6,226.1 411.6,225.8 413.6,225.5 415.6,225.2 417.6,224.9 419.7,224.7 421.7,224.4 423.7,224.1 425.7,223.8 427.7,223.5 429.7,223.3 431.7,223.0 433.7,222.8 435.7,222.5 437.8,222.2 439.8,222.0 441.8,221.8 443.8,221.5 445.8,221.3 447.8,221.1 449.8,220.9 451.8,220.6 453.8,220.4 455.8,220.2 457.9,220.0 459.9,219.8 461.9,219.7 463.9,219.5 465.9,219.3 467.9,219.2 469.9,219.0 471.9,218.8 473.9,218.7 475.9,218.6 477.9,218.4 480.0,218.3 482.0,218.2 484.0,218.1 486.0,218.0 488.0,217.9 490.0,217.8 492.0,217.7 494.0,217.7 496.0,217.6 498.0,217.5 500.1,217.5 502.1,217.4 504.1,217.4 506.1,217.4 508.1,217.4 510.1,217.4 512.1,217.4 514.1,217.4 516.1,217.4 518.1,217.4 520.2,217.5 522.2,217.5 524.2,217.6 526.2,217.6 528.2,217.7 530.2,217.8 532.2,217.9 534.2,218.0 536.2,218.1 538.2,218.2 540.3,218.3 542.3,218.5 544.3,218.6 546.3,218.8 548.3,218.9 550.3,219.1 552.3,219.3 554.3,219.5 556.3,219.7 558.4,219.9 560.4,220.1 562.4,220.3 564.4,220.6 566.4,220.8 568.4,221.1 570.4,221.3 572.4,221.6 574.4,221.9 576.4,222.2 578.5,222.5 580.5,222.8 582.5,223.1 584.5,223.5 586.5,223.8 588.5,224.2 590.5,224.5 592.5,224.9 594.5,225.2 596.5,225.6 598.5,226.0 600.6,226.4 602.6,226.8 604.6,227.2 606.6,227.6 608.6,228.1 610.6,228.5 612.6,228.9 614.6,229.4 616.6,229.8 618.6,230.3 620.7,230.8 622.7,231.2 624.7,231.7 626.7,232.2 628.7,232.7 630.7,233.2 632.7,233.7 634.7,234.2 636.7,234.7 638.8,235.2 640.8,235.7 642.8,236.2 644.8,236.8 646.8,237.3 648.8,237.8 650.8,238.4 652.8,238.9 654.8,239.4 656.8,240.0 658.9,240.5 660.9,241.1 662.9,241.6 664.9,242.2 666.9,242.7 668.9,243.3 670.9,243.8 672.9,244.4 674.9,245.0 676.9,245.5 679.0,246.1 681.0,246.7 683.0,247.2 685.0,247.8 687.0,248.4 689.0,249.0 691.0,249.6 693.0,250.2 695.0,250.7 697.0,251.3 699.0,252.0 701.1,252.6 703.1,253.2 705.1,253.8 707.1,254.5 709.1,255.1 711.1,255.8 713.1,256.4 715.1,257.1 717.1,257.8 719.1,258.5 721.2,259.2 723.2,260.0 725.2,260.7 727.2,261.5 729.2,262.3 731.2,263.1 733.2,263.9 735.2,264.8 737.2,265.7 739.2,266.6 741.3,267.5 743.3,268.5 745.3,269.4 747.3,270.5 749.3,271.5 751.3,272.6 753.3,273.7 755.3,274.8 757.3,276.0 759.4,277.2 761.4,278.5 763.4,279.8 765.4,281.1 767.4,282.4 769.4,283.8 771.4,285.3 773.4,286.8 775.4,288.3 777.4,289.9 779.5,291.5 781.5,293.1 783.5,294.8 785.5,296.5 787.5,298.3 789.5,300.2 791.5,302.0 793.5,303.9 795.5,305.9 797.5,307.9 799.5,310.0 801.6,312.0 803.6,314.2 805.6,316.4 807.6,318.6 809.6,320.9 811.6,323.2 813.6,325.5 815.6,328.0 817.6,330.4 819.6,332.9 821.7,335.4 823.7,338.0 825.7,340.6 827.7,343.3 829.7,346.0 831.7,348.8 833.7,351.6 835.7,354.4 837.7,357.3 839.8,360.2 841.8,363.2 843.8,366.2 845.8,369.3 847.8,372.4 849.8,375.5 851.8,378.7 853.8,381.9 855.8,385.1 857.8,388.4 859.9,391.8 861.9,395.1 863.9,398.6 865.9,402.0 867.9,405.5 869.9,409.1 871.9,412.6 873.9,416.2 875.9,419.9 877.9,423.6 880.0,427.3 882.0,431.1 884.0,434.9 886.0,438.7 888.0,442.6 890.0,446.5" fill="none" stroke="#3867a6" stroke-width="3.2" stroke-linejoin="round" stroke-linecap="round"/>
<circle cx="154.6" cy="250.0" r="6.5" fill="#3867a6" stroke="#3867a6" stroke-width="2"/>
<circle cx="257.4" cy="250.0" r="6.5" fill="#ffffff" stroke="#3867a6" stroke-width="2"/>
<circle cx="692.3" cy="250.0" r="6.5" fill="#3867a6" stroke="#3867a6" stroke-width="2"/>
<line x1="650" y1="170" x2="676" y2="170" stroke="#3867a6" stroke-width="4" stroke-linecap="round"/>
<text x="684" y="174" font-family="Inter, &quot;Helvetica Neue&quot;, Arial, sans-serif" font-size="12" font-weight="700" fill="#171411">higher exposure</text>
<text x="36" y="538" font-family="Inter, &quot;Helvetica Neue&quot;, Arial, sans-serif" font-size="10.5" fill="#5f5a52">Filled dots are stable equilibria; open dots are thresholds. Source: scripts/run_material_feedback_analysis.py.</text>
</svg>
