<svg xmlns="http://www.w3.org/2000/svg" width="940" height="560" viewBox="0 0 940 560">
<rect width="100%" height="100%" fill="#fffaf2"/>
<rect x="18" y="18" width="904" height="524" rx="0" fill="#ffffff" stroke="#eadfce"/>
<line x1="18" y1="18" x2="922" y2="18" stroke="#d5412f" stroke-width="5"/>
<text x="36" y="44" font-family="Inter, &quot;Helvetica Neue&quot;, Arial, sans-serif" font-size="22" font-weight="800" fill="#171411">Same Payoff Rule, Different Basins</text>
<text x="36" y="68" font-family="Inter, &quot;Helvetica Neue&quot;, Arial, sans-serif" font-size="13" fill="#5f5a52">Small differences in initial material capacity can settle into different long-run states</text>
<line x1="36" y1="82" x2="904" y2="82" stroke="#e7dfd3" stroke-width="1"/>
<line x1="78.0" y1="104" x2="78.0" y2="482" stroke="#e7dfd3" stroke-width="1"/>
<text x="78.0" y="508" font-family="Inter, &quot;Helvetica Neue&quot;, Arial, sans-serif" font-size="11" fill="#5f5a52" text-anchor="middle">0</text>
<line x1="281.5" y1="104" x2="281.5" y2="482" stroke="#e7dfd3" stroke-width="1"/>
<text x="281.5" y="508" font-family="Inter, &quot;Helvetica Neue&quot;, Arial, sans-serif" font-size="11" fill="#5f5a52" text-anchor="middle">20</text>
<line x1="485.0" y1="104" x2="485.0" y2="482" stroke="#e7dfd3" stroke-width="1"/>
<text x="485.0" y="508" font-family="Inter, &quot;Helvetica Neue&quot;, Arial, sans-serif" font-size="11" fill="#5f5a52" text-anchor="middle">40</text>
<line x1="688.5" y1="104" x2="688.5" y2="482" stroke="#e7dfd3" stroke-width="1"/>
<text x="688.5" y="508" font-family="Inter, &quot;Helvetica Neue&quot;, Arial, sans-serif" font-size="11" fill="#5f5a52" text-anchor="middle">60</text>
<line x1="892.0" y1="104" x2="892.0" y2="482" stroke="#e7dfd3" stroke-width="1"/>
<text x="892.0" y="508" font-family="Inter, &quot;Helvetica Neue&quot;, Arial, sans-serif" font-size="11" fill="#5f5a52" text-anchor="middle">80</text>
<line x1="78" y1="482.0" x2="892" y2="482.0" stroke="#e7dfd3" stroke-width="1"/>
<text x="66" y="486.0" font-family="Inter, &quot;Helvetica Neue&quot;, Arial, sans-serif" font-size="11" fill="#5f5a52" text-anchor="end">0</text>
<line x1="78" y1="387.5" x2="892" y2="387.5" stroke="#e7dfd3" stroke-width="1"/>
<text x="66" y="391.5" font-family="Inter, &quot;Helvetica Neue&quot;, Arial, sans-serif" font-size="11" fill="#5f5a52" text-anchor="end">0.25</text>
<line x1="78" y1="293.0" x2="892" y2="293.0" stroke="#e7dfd3" stroke-width="1"/>
<text x="66" y="297.0" font-family="Inter, &quot;Helvetica Neue&quot;, Arial, sans-serif" font-size="11" fill="#5f5a52" text-anchor="end">0.5</text>
<line x1="78" y1="198.5" x2="892" y2="198.5" stroke="#e7dfd3" stroke-width="1"/>
<text x="66" y="202.5" font-family="Inter, &quot;Helvetica Neue&quot;, Arial, sans-serif" font-size="11" fill="#5f5a52" text-anchor="end">0.75</text>
<line x1="78" y1="104.0" x2="892" y2="104.0" stroke="#e7dfd3" stroke-width="1"/>
<text x="66" y="108.0" font-family="Inter, &quot;Helvetica Neue&quot;, Arial, sans-serif" font-size="11" fill="#5f5a52" text-anchor="end">1</text>
<text x="485.0" y="529" font-family="Inter, &quot;Helvetica Neue&quot;, Arial, sans-serif" font-size="12" fill="#5f5a52" text-anchor="middle">slow time</text>
<text x="25" y="293.0" font-family="Inter, &quot;Helvetica Neue&quot;, Arial, sans-serif" font-size="12" fill="#5f5a52" transform="rotate(-90 25 293.0)" text-anchor="middle">capacity K</text>
<polyline points="78.0,425.3 88.2,427.8 98.3,430.2 108.5,432.6 118.7,434.8 128.9,437.0 139.1,438.9 149.2,440.6 159.4,442.1 169.6,443.4 179.8,444.6 189.9,445.5 200.1,446.3 210.3,446.9 220.4,447.5 230.6,447.9 240.8,448.3 251.0,448.6 261.1,448.8 271.3,449.0 281.5,449.1 291.7,449.2 301.9,449.3 312.0,449.4 322.2,449.5 332.4,449.5 342.6,449.6 352.7,449.6 362.9,449.6 373.1,449.6 383.2,449.7 393.4,449.7 403.6,449.7 413.8,449.7 423.9,449.7 434.1,449.7 444.3,449.7 454.5,449.7 464.6,449.7 474.8,449.7 485.0,449.7 495.2,449.7 505.4,449.7 515.5,449.7 525.7,449.7 535.9,449.7 546.0,449.7 556.2,449.7 566.4,449.7 576.6,449.7 586.8,449.7 596.9,449.7 607.1,449.7 617.3,449.7 627.5,449.7 637.6,449.7 647.8,449.7 658.0,449.7 668.1,449.7 678.3,449.7 688.5,449.7 698.7,449.7 708.9,449.7 719.0,449.7 729.2,449.7 739.4,449.7 749.5,449.7 759.7,449.7 769.9,449.7 780.1,449.7 790.2,449.7 800.4,449.7 810.6,449.7 820.8,449.7 831.0,449.7 841.1,449.7 851.3,449.7 861.5,449.7 871.6,449.7 881.8,449.7 892.0,449.7" fill="none" stroke="#c74332" stroke-width="3.2" stroke-linejoin="round" stroke-linecap="round"/>
<line x1="604" y1="120" x2="630" y2="120" stroke="#c74332" stroke-width="4" stroke-linecap="round"/>
<text x="638" y="124" font-family="Inter, &quot;Helvetica Neue&quot;, Arial, sans-serif" font-size="12" font-weight="700" fill="#171411">capacity trap, K0=0.15</text>
<polyline points="78.0,368.6 88.2,358.6 98.3,344.7 108.5,324.9 118.7,296.1 128.9,248.2 139.1,187.9 149.2,167.3 159.4,163.9 169.6,163.5 179.8,163.4 189.9,163.4 200.1,163.4 210.3,163.4 220.4,163.4 230.6,163.4 240.8,163.4 251.0,163.4 261.1,163.4 271.3,163.4 281.5,163.4 291.7,163.4 301.9,163.4 312.0,163.4 322.2,163.4 332.4,163.4 342.6,163.4 352.7,163.4 362.9,163.4 373.1,163.4 383.2,163.4 393.4,163.4 403.6,163.4 413.8,163.4 423.9,163.4 434.1,163.4 444.3,163.4 454.5,163.4 464.6,163.4 474.8,163.4 485.0,163.4 495.2,163.4 505.4,163.4 515.5,163.4 525.7,163.4 535.9,163.4 546.0,163.4 556.2,163.4 566.4,163.4 576.6,163.4 586.8,163.4 596.9,163.4 607.1,163.4 617.3,163.4 627.5,163.4 637.6,163.4 647.8,163.4 658.0,163.4 668.1,163.4 678.3,163.4 688.5,163.4 698.7,163.4 708.9,163.4 719.0,163.4 729.2,163.4 739.4,163.4 749.5,163.4 759.7,163.4 769.9,163.4 780.1,163.4 790.2,163.4 800.4,163.4 810.6,163.4 820.8,163.4 831.0,163.4 841.1,163.4 851.3,163.4 861.5,163.4 871.6,163.4 881.8,163.4 892.0,163.4" fill="none" stroke="#007f83" stroke-width="3.2" stroke-linejoin="round" stroke-linecap="round"/>
<line x1="604" y1="146" x2="630" y2="146" stroke="#007f83" stroke-width="4" stroke-linecap="round"/>
<text x="638" y="150" font-family="Inter, &quot;Helvetica Neue&quot;, Arial, sans-serif" font-size="12" font-weight="700" fill="#171411">capacity trap, K0=0.30</text>
<polyline points="78.0,425.3 88.2,408.4 98.3,388.9 108.5,364.2 118.7,330.1 128.9,280.4 139.1,201.6 149.2,160.8 159.4,154.8 169.6,154.1 179.8,154.1 189.9,154.1 200.1,154.1 210.3,154.1 220.4,154.1 230.6,154.1 240.8,154.1 251.0,154.1 261.1,154.1 271.3,154.1 281.5,154.1 291.7,154.1 301.9,154.1 312.0,154.1 322.2,154.1 332.4,154.1 342.6,154.1 352.7,154.1 362.9,154.1 373.1,154.1 383.2,154.1 393.4,154.1 403.6,154.1 413.8,154.1 423.9,154.1 434.1,154.1 444.3,154.1 454.5,154.1 464.6,154.1 474.8,154.1 485.0,154.1 495.2,154.1 505.4,154.1 515.5,154.1 525.7,154.1 535.9,154.1 546.0,154.1 556.2,154.1 566.4,154.1 576.6,154.1 586.8,154.1 596.9,154.1 607.1,154.1 617.3,154.1 627.5,154.1 637.6,154.1 647.8,154.1 658.0,154.1 668.1,154.1 678.3,154.1 688.5,154.1 698.7,154.1 708.9,154.1 719.0,154.1 729.2,154.1 739.4,154.1 749.5,154.1 759.7,154.1 769.9,154.1 780.1,154.1 790.2,154.1 800.4,154.1 810.6,154.1 820.8,154.1 831.0,154.1 841.1,154.1 851.3,154.1 861.5,154.1 871.6,154.1 881.8,154.1 892.0,154.1" fill="none" stroke="#3867a6" stroke-width="3.2" stroke-linejoin="round" stroke-linecap="round"/>
<line x1="604" y1="172" x2="630" y2="172" stroke="#3867a6" stroke-width="4" stroke-linecap="round"/>
<text x="638" y="176" font-family="Inter, &quot;Helvetica Neue&quot;, Arial, sans-serif" font-size="12" font-weight="700" fill="#171411">repair intervention, K0=0.15</text>
<polyline points="78.0,425.3 88.2,396.5 98.3,360.4 108.5,308.8 118.7,238.1 128.9,183.5 139.1,167.8 149.2,165.2 159.4,164.8 169.6,164.7 179.8,164.7 189.9,164.7 200.1,164.7 210.3,164.7 220.4,164.7 230.6,164.7 240.8,164.7 251.0,164.7 261.1,164.7 271.3,164.7 281.5,164.7 291.7,164.7 301.9,164.7 312.0,164.7 322.2,164.7 332.4,164.7 342.6,164.7 352.7,164.7 362.9,164.7 373.1,164.7 383.2,164.7 393.4,164.7 403.6,164.7 413.8,164.7 423.9,164.7 434.1,164.7 444.3,164.7 454.5,164.7 464.6,164.7 474.8,164.7 485.0,164.7 495.2,164.7 505.4,164.7 515.5,164.7 525.7,164.7 535.9,164.7 546.0,164.7 556.2,164.7 566.4,164.7 576.6,164.7 586.8,164.7 596.9,164.7 607.1,164.7 617.3,164.7 627.5,164.7 637.6,164.7 647.8,164.7 658.0,164.7 668.1,164.7 678.3,164.7 688.5,164.7 698.7,164.7 708.9,164.7 719.0,164.7 729.2,164.7 739.4,164.7 749.5,164.7 759.7,164.7 769.9,164.7 780.1,164.7 790.2,164.7 800.4,164.7 810.6,164.7 820.8,164.7 831.0,164.7 841.1,164.7 851.3,164.7 861.5,164.7 871.6,164.7 881.8,164.7 892.0,164.7" fill="none" stroke="#c7831f" stroke-width="3.2" stroke-linejoin="round" stroke-linecap="round"/>
<line x1="604" y1="198" x2="630" y2="198" stroke="#c7831f" stroke-width="4" stroke-linecap="round"/>
<text x="638" y="202" font-family="Inter, &quot;Helvetica Neue&quot;, Arial, sans-serif" font-size="12" font-weight="700" fill="#171411">self-correcting, K0=0.15</text>
<text x="36" y="538" font-family="Inter, &quot;Helvetica Neue&quot;, Arial, sans-serif" font-size="10.5" fill="#5f5a52">Capacity is normalized to [0,1]. Paths use explicit Euler with dt=0.05.</text>
</svg>
