<svg xmlns="http://www.w3.org/2000/svg" width="980" height="430" viewBox="0 0 980 430">
<rect width="100%" height="100%" fill="#ffffff"/>
<text x="34" y="38" font-family="Arial, sans-serif" font-size="22" font-weight="700" fill="#18212f">Finite-Game Sensitivity Checks</text>
<text x="34" y="62" font-family="Arial, sans-serif" font-size="13" fill="#465366">3,000 random games per grid point; rates on vertical axes</text>
<line x1="86" y1="92" x2="86" y2="342" stroke="#9aa4b2"/>
<line x1="86" y1="342" x2="476" y2="342" stroke="#9aa4b2"/>
<line x1="81" y1="342.0" x2="476" y2="342.0" stroke="#e3e7ee"/>
<text x="74" y="346.0" font-family="Arial, sans-serif" font-size="11" fill="#596579" text-anchor="end">0</text>
<line x1="81" y1="279.5" x2="476" y2="279.5" stroke="#e3e7ee"/>
<text x="74" y="283.5" font-family="Arial, sans-serif" font-size="11" fill="#596579" text-anchor="end">0.25</text>
<line x1="81" y1="217.0" x2="476" y2="217.0" stroke="#e3e7ee"/>
<text x="74" y="221.0" font-family="Arial, sans-serif" font-size="11" fill="#596579" text-anchor="end">0.5</text>
<line x1="81" y1="154.5" x2="476" y2="154.5" stroke="#e3e7ee"/>
<text x="74" y="158.5" font-family="Arial, sans-serif" font-size="11" fill="#596579" text-anchor="end">0.75</text>
<line x1="81" y1="92.0" x2="476" y2="92.0" stroke="#e3e7ee"/>
<text x="74" y="96.0" font-family="Arial, sans-serif" font-size="11" fill="#596579" text-anchor="end">1</text>
<line x1="560" y1="92" x2="560" y2="342" stroke="#9aa4b2"/>
<line x1="560" y1="342" x2="950" y2="342" stroke="#9aa4b2"/>
<line x1="555" y1="342.0" x2="950" y2="342.0" stroke="#e3e7ee"/>
<text x="548" y="346.0" font-family="Arial, sans-serif" font-size="11" fill="#596579" text-anchor="end">0</text>
<line x1="555" y1="279.5" x2="950" y2="279.5" stroke="#e3e7ee"/>
<text x="548" y="283.5" font-family="Arial, sans-serif" font-size="11" fill="#596579" text-anchor="end">0.25</text>
<line x1="555" y1="217.0" x2="950" y2="217.0" stroke="#e3e7ee"/>
<text x="548" y="221.0" font-family="Arial, sans-serif" font-size="11" fill="#596579" text-anchor="end">0.5</text>
<line x1="555" y1="154.5" x2="950" y2="154.5" stroke="#e3e7ee"/>
<text x="548" y="158.5" font-family="Arial, sans-serif" font-size="11" fill="#596579" text-anchor="end">0.75</text>
<line x1="555" y1="92.0" x2="950" y2="92.0" stroke="#e3e7ee"/>
<text x="548" y="96.0" font-family="Arial, sans-serif" font-size="11" fill="#596579" text-anchor="end">1</text>
<text x="86" y="84" font-family="Arial, sans-serif" font-size="14" font-weight="700">Strategic distortion scale</text>
<text x="560" y="84" font-family="Arial, sans-serif" font-size="14" font-weight="700">Aligned proxy noise</text>
<polyline points="86.0,92.0 98.2,289.2 110.4,296.8 134.8,306.9 183.5,321.7 281.0,328.8 476.0,334.2" fill="none" stroke="#2c7a7b" stroke-width="3"/>
<polyline points="86.0,342.0 98.2,314.8 110.4,287.2 134.8,251.2 183.5,212.6 281.0,182.8 476.0,163.2" fill="none" stroke="#c9822b" stroke-width="3"/>
<polyline points="560.0,342.0 579.5,338.3 608.8,330.2 657.5,314.7 755.0,270.7 950.0,242.2" fill="none" stroke="#c84f4f" stroke-width="3"/>
<polyline points="560.0,250.8 579.5,250.4 608.8,242.5 657.5,237.4 755.0,212.2 950.0,187.2" fill="none" stroke="#5c6bc0" stroke-width="3"/>
<circle cx="86.0" cy="92.0" r="4" fill="#2c7a7b"/>
<circle cx="98.2" cy="289.2" r="4" fill="#2c7a7b"/>
<circle cx="110.4" cy="296.8" r="4" fill="#2c7a7b"/>
<circle cx="134.8" cy="306.9" r="4" fill="#2c7a7b"/>
<circle cx="183.5" cy="321.7" r="4" fill="#2c7a7b"/>
<circle cx="281.0" cy="328.8" r="4" fill="#2c7a7b"/>
<circle cx="476.0" cy="334.2" r="4" fill="#2c7a7b"/>
<circle cx="86.0" cy="342.0" r="4" fill="#c9822b"/>
<circle cx="98.2" cy="314.8" r="4" fill="#c9822b"/>
<circle cx="110.4" cy="287.2" r="4" fill="#c9822b"/>
<circle cx="134.8" cy="251.2" r="4" fill="#c9822b"/>
<circle cx="183.5" cy="212.6" r="4" fill="#c9822b"/>
<circle cx="281.0" cy="182.8" r="4" fill="#c9822b"/>
<circle cx="476.0" cy="163.2" r="4" fill="#c9822b"/>
<circle cx="560.0" cy="342.0" r="4" fill="#c84f4f"/>
<circle cx="579.5" cy="338.3" r="4" fill="#c84f4f"/>
<circle cx="608.8" cy="330.2" r="4" fill="#c84f4f"/>
<circle cx="657.5" cy="314.7" r="4" fill="#c84f4f"/>
<circle cx="755.0" cy="270.7" r="4" fill="#c84f4f"/>
<circle cx="950.0" cy="242.2" r="4" fill="#c84f4f"/>
<circle cx="560.0" cy="250.8" r="4" fill="#5c6bc0"/>
<circle cx="579.5" cy="250.4" r="4" fill="#5c6bc0"/>
<circle cx="608.8" cy="242.5" r="4" fill="#5c6bc0"/>
<circle cx="657.5" cy="237.4" r="4" fill="#5c6bc0"/>
<circle cx="755.0" cy="212.2" r="4" fill="#5c6bc0"/>
<circle cx="950.0" cy="187.2" r="4" fill="#5c6bc0"/>
<text x="98" y="110" font-family="Arial, sans-serif" font-size="11" fill="#2c7a7b">mixed BR invariance</text>
<text x="98" y="128" font-family="Arial, sans-serif" font-size="11" fill="#c9822b">equilibrium shift</text>
<text x="572" y="110" font-family="Arial, sans-serif" font-size="11" fill="#c84f4f">material loss</text>
<text x="572" y="128" font-family="Arial, sans-serif" font-size="11" fill="#5c6bc0">equilibrium shift</text>
<text x="281.0" y="402" font-family="Arial, sans-serif" font-size="12" fill="#596579" text-anchor="middle">distortion scale</text>
<text x="755.0" y="402" font-family="Arial, sans-serif" font-size="12" fill="#596579" text-anchor="middle">noise weight</text>
</svg>
