<svg xmlns="http://www.w3.org/2000/svg" width="920" height="418" viewBox="0 0 920 418">
<rect width="100%" height="100%" fill="#ffffff"/>
<text x="32" y="34" font-family="Arial, sans-serif" font-size="22" font-weight="700" fill="#18212f">Finite-Game Fast-Closure Audit</text>
<text x="32" y="58" font-family="Arial, sans-serif" font-size="13" fill="#465366">5,000 random two-player games per route; neutral route is the sanity control</text>
<line x1="250.0" y1="68" x2="250.0" y2="356" stroke="#d9dee8" stroke-width="1"/>
<text x="250.0" y="382" font-family="Arial, sans-serif" font-size="11" fill="#596579" text-anchor="middle">0</text>
<line x1="401.5" y1="68" x2="401.5" y2="356" stroke="#d9dee8" stroke-width="1"/>
<text x="401.5" y="382" font-family="Arial, sans-serif" font-size="11" fill="#596579" text-anchor="middle">0.25</text>
<line x1="553.0" y1="68" x2="553.0" y2="356" stroke="#d9dee8" stroke-width="1"/>
<text x="553.0" y="382" font-family="Arial, sans-serif" font-size="11" fill="#596579" text-anchor="middle">0.5</text>
<line x1="704.5" y1="68" x2="704.5" y2="356" stroke="#d9dee8" stroke-width="1"/>
<text x="704.5" y="382" font-family="Arial, sans-serif" font-size="11" fill="#596579" text-anchor="middle">0.75</text>
<line x1="856.0" y1="68" x2="856.0" y2="356" stroke="#d9dee8" stroke-width="1"/>
<text x="856.0" y="382" font-family="Arial, sans-serif" font-size="11" fill="#596579" text-anchor="middle">1</text>
<text x="32" y="101" font-family="Arial, sans-serif" font-size="13" font-weight="700" fill="#18212f">Neutral Control</text>
<text x="32" y="120" font-family="Arial, sans-serif" font-size="11" fill="#667085">Equilibrium shift rate</text>
<rect x="250" y="92" width="1.0" height="24" rx="3" fill="#319b7b"/>
<text x="260.0" y="109" font-family="Arial, sans-serif" font-size="12" font-weight="700" fill="#18212f">0.000</text>
<text x="32" y="155" font-family="Arial, sans-serif" font-size="13" font-weight="700" fill="#18212f">Random Strategic Closure</text>
<text x="32" y="174" font-family="Arial, sans-serif" font-size="11" fill="#667085">Equilibrium shift rate</text>
<rect x="250" y="146" width="305.7" height="24" rx="3" fill="#c9822b"/>
<text x="565.6664" y="163" font-family="Arial, sans-serif" font-size="12" font-weight="700" fill="#18212f">0.504</text>
<text x="32" y="209" font-family="Arial, sans-serif" font-size="13" font-weight="700" fill="#18212f">Proxy Aligned</text>
<text x="32" y="228" font-family="Arial, sans-serif" font-size="11" fill="#667085">Material loss rate</text>
<rect x="250" y="200" width="26.2" height="24" rx="3" fill="#319b7b"/>
<text x="286.1792" y="217" font-family="Arial, sans-serif" font-size="12" font-weight="700" fill="#18212f">0.043</text>
<text x="32" y="263" font-family="Arial, sans-serif" font-size="13" font-weight="700" fill="#18212f">Proxy Independent</text>
<text x="32" y="282" font-family="Arial, sans-serif" font-size="11" fill="#667085">Material loss rate</text>
<rect x="250" y="254" width="348.9" height="24" rx="3" fill="#c9822b"/>
<text x="608.9348" y="271" font-family="Arial, sans-serif" font-size="12" font-weight="700" fill="#18212f">0.576</text>
<text x="32" y="317" font-family="Arial, sans-serif" font-size="13" font-weight="700" fill="#18212f">Proxy Misaligned</text>
<text x="32" y="336" font-family="Arial, sans-serif" font-size="11" fill="#667085">Material loss rate</text>
<rect x="250" y="308" width="588.2" height="24" rx="3" fill="#c84f4f"/>
<text x="820" y="325" font-family="Arial, sans-serif" font-size="12" font-weight="700" fill="#18212f">0.971</text>
<text x="553.0" y="406" font-family="Arial, sans-serif" font-size="12" fill="#596579" text-anchor="middle">rate</text>
</svg>
