<svg xmlns="http://www.w3.org/2000/svg" width="368" height="1044" viewBox="0 0 368 1044">
<rect width="100%" height="100%" fill="#fbfaf7"/>
<text x="20" y="28" font-family="Arial" font-size="18" font-weight="700">Platform-control inversion sweep</text>
<text x="20" y="50" font-family="Arial" font-size="12" fill="#555">red = preference capture with fitness and initial-preference loss</text>
<text x="20" y="88" font-family="Arial" font-size="13" font-weight="700">selection 0.6</text>
<text x="100" y="60" font-family="Arial" font-size="10" text-anchor="middle">c=0.02</text>
<text x="138" y="60" font-family="Arial" font-size="10" text-anchor="middle">c=0.05</text>
<text x="176" y="60" font-family="Arial" font-size="10" text-anchor="middle">c=0.10</text>
<text x="214" y="60" font-family="Arial" font-size="10" text-anchor="middle">c=0.18</text>
<text x="252" y="60" font-family="Arial" font-size="10" text-anchor="middle">c=0.30</text>
<text x="290" y="60" font-family="Arial" font-size="10" text-anchor="middle">c=0.50</text>
<text x="82" y="91" font-family="Arial" font-size="10" text-anchor="end">eta=0.04</text>
<rect x="100" y="70" width="34" height="34" rx="3" fill="#b73535" stroke="#ffffff"/>
<text x="117.0" y="91" font-family="Arial" font-size="9" text-anchor="middle" fill="#202020">0.72</text>
<rect x="138" y="70" width="34" height="34" rx="3" fill="#d8d1c8" stroke="#ffffff"/>
<text x="155.0" y="91" font-family="Arial" font-size="9" text-anchor="middle" fill="#202020">0.55</text>
<rect x="176" y="70" width="34" height="34" rx="3" fill="#d8d1c8" stroke="#ffffff"/>
<text x="193.0" y="91" font-family="Arial" font-size="9" text-anchor="middle" fill="#202020">0.37</text>
<rect x="214" y="70" width="34" height="34" rx="3" fill="#d8d1c8" stroke="#ffffff"/>
<text x="231.0" y="91" font-family="Arial" font-size="9" text-anchor="middle" fill="#202020">0.27</text>
<rect x="252" y="70" width="34" height="34" rx="3" fill="#d8d1c8" stroke="#ffffff"/>
<text x="269.0" y="91" font-family="Arial" font-size="9" text-anchor="middle" fill="#202020">0.15</text>
<rect x="290" y="70" width="34" height="34" rx="3" fill="#d8d1c8" stroke="#ffffff"/>
<text x="307.0" y="91" font-family="Arial" font-size="9" text-anchor="middle" fill="#202020">0.15</text>
<text x="82" y="129" font-family="Arial" font-size="10" text-anchor="end">eta=0.08</text>
<rect x="100" y="108" width="34" height="34" rx="3" fill="#b73535" stroke="#ffffff"/>
<text x="117.0" y="129" font-family="Arial" font-size="9" text-anchor="middle" fill="#202020">0.82</text>
<rect x="138" y="108" width="34" height="34" rx="3" fill="#b73535" stroke="#ffffff"/>
<text x="155.0" y="129" font-family="Arial" font-size="9" text-anchor="middle" fill="#202020">0.73</text>
<rect x="176" y="108" width="34" height="34" rx="3" fill="#d8d1c8" stroke="#ffffff"/>
<text x="193.0" y="129" font-family="Arial" font-size="9" text-anchor="middle" fill="#202020">0.63</text>
<rect x="214" y="108" width="34" height="34" rx="3" fill="#d8d1c8" stroke="#ffffff"/>
<text x="231.0" y="129" font-family="Arial" font-size="9" text-anchor="middle" fill="#202020">0.52</text>
<rect x="252" y="108" width="34" height="34" rx="3" fill="#d8d1c8" stroke="#ffffff"/>
<text x="269.0" y="129" font-family="Arial" font-size="9" text-anchor="middle" fill="#202020">0.40</text>
<rect x="290" y="108" width="34" height="34" rx="3" fill="#d8d1c8" stroke="#ffffff"/>
<text x="307.0" y="129" font-family="Arial" font-size="9" text-anchor="middle" fill="#202020">0.26</text>
<text x="82" y="167" font-family="Arial" font-size="10" text-anchor="end">eta=0.12</text>
<rect x="100" y="146" width="34" height="34" rx="3" fill="#b73535" stroke="#ffffff"/>
<text x="117.0" y="167" font-family="Arial" font-size="9" text-anchor="middle" fill="#202020">0.86</text>
<rect x="138" y="146" width="34" height="34" rx="3" fill="#b73535" stroke="#ffffff"/>
<text x="155.0" y="167" font-family="Arial" font-size="9" text-anchor="middle" fill="#202020">0.79</text>
<rect x="176" y="146" width="34" height="34" rx="3" fill="#b73535" stroke="#ffffff"/>
<text x="193.0" y="167" font-family="Arial" font-size="9" text-anchor="middle" fill="#202020">0.73</text>
<rect x="214" y="146" width="34" height="34" rx="3" fill="#d8d1c8" stroke="#ffffff"/>
<text x="231.0" y="167" font-family="Arial" font-size="9" text-anchor="middle" fill="#202020">0.63</text>
<rect x="252" y="146" width="34" height="34" rx="3" fill="#d8d1c8" stroke="#ffffff"/>
<text x="269.0" y="167" font-family="Arial" font-size="9" text-anchor="middle" fill="#202020">0.57</text>
<rect x="290" y="146" width="34" height="34" rx="3" fill="#d8d1c8" stroke="#ffffff"/>
<text x="307.0" y="167" font-family="Arial" font-size="9" text-anchor="middle" fill="#202020">0.42</text>
<text x="82" y="205" font-family="Arial" font-size="10" text-anchor="end">eta=0.16</text>
<rect x="100" y="184" width="34" height="34" rx="3" fill="#b73535" stroke="#ffffff"/>
<text x="117.0" y="205" font-family="Arial" font-size="9" text-anchor="middle" fill="#202020">0.89</text>
<rect x="138" y="184" width="34" height="34" rx="3" fill="#b73535" stroke="#ffffff"/>
<text x="155.0" y="205" font-family="Arial" font-size="9" text-anchor="middle" fill="#202020">0.83</text>
<rect x="176" y="184" width="34" height="34" rx="3" fill="#b73535" stroke="#ffffff"/>
<text x="193.0" y="205" font-family="Arial" font-size="9" text-anchor="middle" fill="#202020">0.75</text>
<rect x="214" y="184" width="34" height="34" rx="3" fill="#b73535" stroke="#ffffff"/>
<text x="231.0" y="205" font-family="Arial" font-size="9" text-anchor="middle" fill="#202020">0.73</text>
<rect x="252" y="184" width="34" height="34" rx="3" fill="#d8d1c8" stroke="#ffffff"/>
<text x="269.0" y="205" font-family="Arial" font-size="9" text-anchor="middle" fill="#202020">0.63</text>
<rect x="290" y="184" width="34" height="34" rx="3" fill="#d8d1c8" stroke="#ffffff"/>
<text x="307.0" y="205" font-family="Arial" font-size="9" text-anchor="middle" fill="#202020">0.49</text>
<text x="82" y="243" font-family="Arial" font-size="10" text-anchor="end">eta=0.22</text>
<rect x="100" y="222" width="34" height="34" rx="3" fill="#b73535" stroke="#ffffff"/>
<text x="117.0" y="243" font-family="Arial" font-size="9" text-anchor="middle" fill="#202020">0.91</text>
<rect x="138" y="222" width="34" height="34" rx="3" fill="#b73535" stroke="#ffffff"/>
<text x="155.0" y="243" font-family="Arial" font-size="9" text-anchor="middle" fill="#202020">0.86</text>
<rect x="176" y="222" width="34" height="34" rx="3" fill="#b73535" stroke="#ffffff"/>
<text x="193.0" y="243" font-family="Arial" font-size="9" text-anchor="middle" fill="#202020">0.80</text>
<rect x="214" y="222" width="34" height="34" rx="3" fill="#b73535" stroke="#ffffff"/>
<text x="231.0" y="243" font-family="Arial" font-size="9" text-anchor="middle" fill="#202020">0.75</text>
<rect x="252" y="222" width="34" height="34" rx="3" fill="#d8d1c8" stroke="#ffffff"/>
<text x="269.0" y="243" font-family="Arial" font-size="9" text-anchor="middle" fill="#202020">0.66</text>
<rect x="290" y="222" width="34" height="34" rx="3" fill="#d8d1c8" stroke="#ffffff"/>
<text x="307.0" y="243" font-family="Arial" font-size="9" text-anchor="middle" fill="#202020">0.65</text>
<text x="82" y="281" font-family="Arial" font-size="10" text-anchor="end">eta=0.30</text>
<rect x="100" y="260" width="34" height="34" rx="3" fill="#b73535" stroke="#ffffff"/>
<text x="117.0" y="281" font-family="Arial" font-size="9" text-anchor="middle" fill="#202020">0.93</text>
<rect x="138" y="260" width="34" height="34" rx="3" fill="#b73535" stroke="#ffffff"/>
<text x="155.0" y="281" font-family="Arial" font-size="9" text-anchor="middle" fill="#202020">0.89</text>
<rect x="176" y="260" width="34" height="34" rx="3" fill="#b73535" stroke="#ffffff"/>
<text x="193.0" y="281" font-family="Arial" font-size="9" text-anchor="middle" fill="#202020">0.83</text>
<rect x="214" y="260" width="34" height="34" rx="3" fill="#b73535" stroke="#ffffff"/>
<text x="231.0" y="281" font-family="Arial" font-size="9" text-anchor="middle" fill="#202020">0.80</text>
<rect x="252" y="260" width="34" height="34" rx="3" fill="#b73535" stroke="#ffffff"/>
<text x="269.0" y="281" font-family="Arial" font-size="9" text-anchor="middle" fill="#202020">0.75</text>
<rect x="290" y="260" width="34" height="34" rx="3" fill="#d8d1c8" stroke="#ffffff"/>
<text x="307.0" y="281" font-family="Arial" font-size="9" text-anchor="middle" fill="#202020">0.66</text>
<text x="20" y="386" font-family="Arial" font-size="13" font-weight="700">selection 1.4</text>
<text x="100" y="358" font-family="Arial" font-size="10" text-anchor="middle">c=0.02</text>
<text x="138" y="358" font-family="Arial" font-size="10" text-anchor="middle">c=0.05</text>
<text x="176" y="358" font-family="Arial" font-size="10" text-anchor="middle">c=0.10</text>
<text x="214" y="358" font-family="Arial" font-size="10" text-anchor="middle">c=0.18</text>
<text x="252" y="358" font-family="Arial" font-size="10" text-anchor="middle">c=0.30</text>
<text x="290" y="358" font-family="Arial" font-size="10" text-anchor="middle">c=0.50</text>
<text x="82" y="389" font-family="Arial" font-size="10" text-anchor="end">eta=0.04</text>
<rect x="100" y="368" width="34" height="34" rx="3" fill="#d8d1c8" stroke="#ffffff"/>
<text x="117.0" y="389" font-family="Arial" font-size="9" text-anchor="middle" fill="#202020">0.63</text>
<rect x="138" y="368" width="34" height="34" rx="3" fill="#d8d1c8" stroke="#ffffff"/>
<text x="155.0" y="389" font-family="Arial" font-size="9" text-anchor="middle" fill="#202020">0.42</text>
<rect x="176" y="368" width="34" height="34" rx="3" fill="#d8d1c8" stroke="#ffffff"/>
<text x="193.0" y="389" font-family="Arial" font-size="9" text-anchor="middle" fill="#202020">0.33</text>
<rect x="214" y="368" width="34" height="34" rx="3" fill="#d8d1c8" stroke="#ffffff"/>
<text x="231.0" y="389" font-family="Arial" font-size="9" text-anchor="middle" fill="#202020">0.21</text>
<rect x="252" y="368" width="34" height="34" rx="3" fill="#d8d1c8" stroke="#ffffff"/>
<text x="269.0" y="389" font-family="Arial" font-size="9" text-anchor="middle" fill="#202020">0.10</text>
<rect x="290" y="368" width="34" height="34" rx="3" fill="#d8d1c8" stroke="#ffffff"/>
<text x="307.0" y="389" font-family="Arial" font-size="9" text-anchor="middle" fill="#202020">0.10</text>
<text x="82" y="427" font-family="Arial" font-size="10" text-anchor="end">eta=0.08</text>
<rect x="100" y="406" width="34" height="34" rx="3" fill="#b73535" stroke="#ffffff"/>
<text x="117.0" y="427" font-family="Arial" font-size="9" text-anchor="middle" fill="#202020">0.79</text>
<rect x="138" y="406" width="34" height="34" rx="3" fill="#d8d1c8" stroke="#ffffff"/>
<text x="155.0" y="427" font-family="Arial" font-size="9" text-anchor="middle" fill="#202020">0.66</text>
<rect x="176" y="406" width="34" height="34" rx="3" fill="#d8d1c8" stroke="#ffffff"/>
<text x="193.0" y="427" font-family="Arial" font-size="9" text-anchor="middle" fill="#202020">0.58</text>
<rect x="214" y="406" width="34" height="34" rx="3" fill="#d8d1c8" stroke="#ffffff"/>
<text x="231.0" y="427" font-family="Arial" font-size="9" text-anchor="middle" fill="#202020">0.50</text>
<rect x="252" y="406" width="34" height="34" rx="3" fill="#d8d1c8" stroke="#ffffff"/>
<text x="269.0" y="427" font-family="Arial" font-size="9" text-anchor="middle" fill="#202020">0.38</text>
<rect x="290" y="406" width="34" height="34" rx="3" fill="#d8d1c8" stroke="#ffffff"/>
<text x="307.0" y="427" font-family="Arial" font-size="9" text-anchor="middle" fill="#202020">0.20</text>
<text x="82" y="465" font-family="Arial" font-size="10" text-anchor="end">eta=0.12</text>
<rect x="100" y="444" width="34" height="34" rx="3" fill="#b73535" stroke="#ffffff"/>
<text x="117.0" y="465" font-family="Arial" font-size="9" text-anchor="middle" fill="#202020">0.86</text>
<rect x="138" y="444" width="34" height="34" rx="3" fill="#b73535" stroke="#ffffff"/>
<text x="155.0" y="465" font-family="Arial" font-size="9" text-anchor="middle" fill="#202020">0.79</text>
<rect x="176" y="444" width="34" height="34" rx="3" fill="#d8d1c8" stroke="#ffffff"/>
<text x="193.0" y="465" font-family="Arial" font-size="9" text-anchor="middle" fill="#202020">0.66</text>
<rect x="214" y="444" width="34" height="34" rx="3" fill="#d8d1c8" stroke="#ffffff"/>
<text x="231.0" y="465" font-family="Arial" font-size="9" text-anchor="middle" fill="#202020">0.61</text>
<rect x="252" y="444" width="34" height="34" rx="3" fill="#d8d1c8" stroke="#ffffff"/>
<text x="269.0" y="465" font-family="Arial" font-size="9" text-anchor="middle" fill="#202020">0.56</text>
<rect x="290" y="444" width="34" height="34" rx="3" fill="#d8d1c8" stroke="#ffffff"/>
<text x="307.0" y="465" font-family="Arial" font-size="9" text-anchor="middle" fill="#202020">0.38</text>
<text x="82" y="503" font-family="Arial" font-size="10" text-anchor="end">eta=0.16</text>
<rect x="100" y="482" width="34" height="34" rx="3" fill="#b73535" stroke="#ffffff"/>
<text x="117.0" y="503" font-family="Arial" font-size="9" text-anchor="middle" fill="#202020">0.89</text>
<rect x="138" y="482" width="34" height="34" rx="3" fill="#b73535" stroke="#ffffff"/>
<text x="155.0" y="503" font-family="Arial" font-size="9" text-anchor="middle" fill="#202020">0.83</text>
<rect x="176" y="482" width="34" height="34" rx="3" fill="#b73535" stroke="#ffffff"/>
<text x="193.0" y="503" font-family="Arial" font-size="9" text-anchor="middle" fill="#202020">0.74</text>
<rect x="214" y="482" width="34" height="34" rx="3" fill="#d8d1c8" stroke="#ffffff"/>
<text x="231.0" y="503" font-family="Arial" font-size="9" text-anchor="middle" fill="#202020">0.65</text>
<rect x="252" y="482" width="34" height="34" rx="3" fill="#d8d1c8" stroke="#ffffff"/>
<text x="269.0" y="503" font-family="Arial" font-size="9" text-anchor="middle" fill="#202020">0.62</text>
<rect x="290" y="482" width="34" height="34" rx="3" fill="#d8d1c8" stroke="#ffffff"/>
<text x="307.0" y="503" font-family="Arial" font-size="9" text-anchor="middle" fill="#202020">0.46</text>
<text x="82" y="541" font-family="Arial" font-size="10" text-anchor="end">eta=0.22</text>
<rect x="100" y="520" width="34" height="34" rx="3" fill="#b73535" stroke="#ffffff"/>
<text x="117.0" y="541" font-family="Arial" font-size="9" text-anchor="middle" fill="#202020">0.91</text>
<rect x="138" y="520" width="34" height="34" rx="3" fill="#b73535" stroke="#ffffff"/>
<text x="155.0" y="541" font-family="Arial" font-size="9" text-anchor="middle" fill="#202020">0.86</text>
<rect x="176" y="520" width="34" height="34" rx="3" fill="#b73535" stroke="#ffffff"/>
<text x="193.0" y="541" font-family="Arial" font-size="9" text-anchor="middle" fill="#202020">0.80</text>
<rect x="214" y="520" width="34" height="34" rx="3" fill="#b73535" stroke="#ffffff"/>
<text x="231.0" y="541" font-family="Arial" font-size="9" text-anchor="middle" fill="#202020">0.75</text>
<rect x="252" y="520" width="34" height="34" rx="3" fill="#d8d1c8" stroke="#ffffff"/>
<text x="269.0" y="541" font-family="Arial" font-size="9" text-anchor="middle" fill="#202020">0.66</text>
<rect x="290" y="520" width="34" height="34" rx="3" fill="#d8d1c8" stroke="#ffffff"/>
<text x="307.0" y="541" font-family="Arial" font-size="9" text-anchor="middle" fill="#202020">0.64</text>
<text x="82" y="579" font-family="Arial" font-size="10" text-anchor="end">eta=0.30</text>
<rect x="100" y="558" width="34" height="34" rx="3" fill="#b73535" stroke="#ffffff"/>
<text x="117.0" y="579" font-family="Arial" font-size="9" text-anchor="middle" fill="#202020">0.93</text>
<rect x="138" y="558" width="34" height="34" rx="3" fill="#b73535" stroke="#ffffff"/>
<text x="155.0" y="579" font-family="Arial" font-size="9" text-anchor="middle" fill="#202020">0.89</text>
<rect x="176" y="558" width="34" height="34" rx="3" fill="#b73535" stroke="#ffffff"/>
<text x="193.0" y="579" font-family="Arial" font-size="9" text-anchor="middle" fill="#202020">0.83</text>
<rect x="214" y="558" width="34" height="34" rx="3" fill="#b73535" stroke="#ffffff"/>
<text x="231.0" y="579" font-family="Arial" font-size="9" text-anchor="middle" fill="#202020">0.80</text>
<rect x="252" y="558" width="34" height="34" rx="3" fill="#b73535" stroke="#ffffff"/>
<text x="269.0" y="579" font-family="Arial" font-size="9" text-anchor="middle" fill="#202020">0.75</text>
<rect x="290" y="558" width="34" height="34" rx="3" fill="#d8d1c8" stroke="#ffffff"/>
<text x="307.0" y="579" font-family="Arial" font-size="9" text-anchor="middle" fill="#202020">0.66</text>
<text x="20" y="684" font-family="Arial" font-size="13" font-weight="700">selection 2.4</text>
<text x="100" y="656" font-family="Arial" font-size="10" text-anchor="middle">c=0.02</text>
<text x="138" y="656" font-family="Arial" font-size="10" text-anchor="middle">c=0.05</text>
<text x="176" y="656" font-family="Arial" font-size="10" text-anchor="middle">c=0.10</text>
<text x="214" y="656" font-family="Arial" font-size="10" text-anchor="middle">c=0.18</text>
<text x="252" y="656" font-family="Arial" font-size="10" text-anchor="middle">c=0.30</text>
<text x="290" y="656" font-family="Arial" font-size="10" text-anchor="middle">c=0.50</text>
<text x="82" y="687" font-family="Arial" font-size="10" text-anchor="end">eta=0.04</text>
<rect x="100" y="666" width="34" height="34" rx="3" fill="#d8d1c8" stroke="#ffffff"/>
<text x="117.0" y="687" font-family="Arial" font-size="9" text-anchor="middle" fill="#202020">0.63</text>
<rect x="138" y="666" width="34" height="34" rx="3" fill="#d8d1c8" stroke="#ffffff"/>
<text x="155.0" y="687" font-family="Arial" font-size="9" text-anchor="middle" fill="#202020">0.43</text>
<rect x="176" y="666" width="34" height="34" rx="3" fill="#d8d1c8" stroke="#ffffff"/>
<text x="193.0" y="687" font-family="Arial" font-size="9" text-anchor="middle" fill="#202020">0.28</text>
<rect x="214" y="666" width="34" height="34" rx="3" fill="#d8d1c8" stroke="#ffffff"/>
<text x="231.0" y="687" font-family="Arial" font-size="9" text-anchor="middle" fill="#202020">0.16</text>
<rect x="252" y="666" width="34" height="34" rx="3" fill="#d8d1c8" stroke="#ffffff"/>
<text x="269.0" y="687" font-family="Arial" font-size="9" text-anchor="middle" fill="#202020">0.07</text>
<rect x="290" y="666" width="34" height="34" rx="3" fill="#d8d1c8" stroke="#ffffff"/>
<text x="307.0" y="687" font-family="Arial" font-size="9" text-anchor="middle" fill="#202020">0.01</text>
<text x="82" y="725" font-family="Arial" font-size="10" text-anchor="end">eta=0.08</text>
<rect x="100" y="704" width="34" height="34" rx="3" fill="#b73535" stroke="#ffffff"/>
<text x="117.0" y="725" font-family="Arial" font-size="9" text-anchor="middle" fill="#202020">0.79</text>
<rect x="138" y="704" width="34" height="34" rx="3" fill="#d8d1c8" stroke="#ffffff"/>
<text x="155.0" y="725" font-family="Arial" font-size="9" text-anchor="middle" fill="#202020">0.66</text>
<rect x="176" y="704" width="34" height="34" rx="3" fill="#d8d1c8" stroke="#ffffff"/>
<text x="193.0" y="725" font-family="Arial" font-size="9" text-anchor="middle" fill="#202020">0.58</text>
<rect x="214" y="704" width="34" height="34" rx="3" fill="#d8d1c8" stroke="#ffffff"/>
<text x="231.0" y="725" font-family="Arial" font-size="9" text-anchor="middle" fill="#202020">0.42</text>
<rect x="252" y="704" width="34" height="34" rx="3" fill="#d8d1c8" stroke="#ffffff"/>
<text x="269.0" y="725" font-family="Arial" font-size="9" text-anchor="middle" fill="#202020">0.37</text>
<rect x="290" y="704" width="34" height="34" rx="3" fill="#d8d1c8" stroke="#ffffff"/>
<text x="307.0" y="725" font-family="Arial" font-size="9" text-anchor="middle" fill="#202020">0.16</text>
<text x="82" y="763" font-family="Arial" font-size="10" text-anchor="end">eta=0.12</text>
<rect x="100" y="742" width="34" height="34" rx="3" fill="#b73535" stroke="#ffffff"/>
<text x="117.0" y="763" font-family="Arial" font-size="9" text-anchor="middle" fill="#202020">0.85</text>
<rect x="138" y="742" width="34" height="34" rx="3" fill="#b73535" stroke="#ffffff"/>
<text x="155.0" y="763" font-family="Arial" font-size="9" text-anchor="middle" fill="#202020">0.78</text>
<rect x="176" y="742" width="34" height="34" rx="3" fill="#d8d1c8" stroke="#ffffff"/>
<text x="193.0" y="763" font-family="Arial" font-size="9" text-anchor="middle" fill="#202020">0.65</text>
<rect x="214" y="742" width="34" height="34" rx="3" fill="#d8d1c8" stroke="#ffffff"/>
<text x="231.0" y="763" font-family="Arial" font-size="9" text-anchor="middle" fill="#202020">0.60</text>
<rect x="252" y="742" width="34" height="34" rx="3" fill="#d8d1c8" stroke="#ffffff"/>
<text x="269.0" y="763" font-family="Arial" font-size="9" text-anchor="middle" fill="#202020">0.45</text>
<rect x="290" y="742" width="34" height="34" rx="3" fill="#d8d1c8" stroke="#ffffff"/>
<text x="307.0" y="763" font-family="Arial" font-size="9" text-anchor="middle" fill="#202020">0.35</text>
<text x="82" y="801" font-family="Arial" font-size="10" text-anchor="end">eta=0.16</text>
<rect x="100" y="780" width="34" height="34" rx="3" fill="#b73535" stroke="#ffffff"/>
<text x="117.0" y="801" font-family="Arial" font-size="9" text-anchor="middle" fill="#202020">0.89</text>
<rect x="138" y="780" width="34" height="34" rx="3" fill="#b73535" stroke="#ffffff"/>
<text x="155.0" y="801" font-family="Arial" font-size="9" text-anchor="middle" fill="#202020">0.80</text>
<rect x="176" y="780" width="34" height="34" rx="3" fill="#b73535" stroke="#ffffff"/>
<text x="193.0" y="801" font-family="Arial" font-size="9" text-anchor="middle" fill="#202020">0.74</text>
<rect x="214" y="780" width="34" height="34" rx="3" fill="#d8d1c8" stroke="#ffffff"/>
<text x="231.0" y="801" font-family="Arial" font-size="9" text-anchor="middle" fill="#202020">0.65</text>
<rect x="252" y="780" width="34" height="34" rx="3" fill="#d8d1c8" stroke="#ffffff"/>
<text x="269.0" y="801" font-family="Arial" font-size="9" text-anchor="middle" fill="#202020">0.61</text>
<rect x="290" y="780" width="34" height="34" rx="3" fill="#d8d1c8" stroke="#ffffff"/>
<text x="307.0" y="801" font-family="Arial" font-size="9" text-anchor="middle" fill="#202020">0.45</text>
<text x="82" y="839" font-family="Arial" font-size="10" text-anchor="end">eta=0.22</text>
<rect x="100" y="818" width="34" height="34" rx="3" fill="#b73535" stroke="#ffffff"/>
<text x="117.0" y="839" font-family="Arial" font-size="9" text-anchor="middle" fill="#202020">0.91</text>
<rect x="138" y="818" width="34" height="34" rx="3" fill="#b73535" stroke="#ffffff"/>
<text x="155.0" y="839" font-family="Arial" font-size="9" text-anchor="middle" fill="#202020">0.86</text>
<rect x="176" y="818" width="34" height="34" rx="3" fill="#b73535" stroke="#ffffff"/>
<text x="193.0" y="839" font-family="Arial" font-size="9" text-anchor="middle" fill="#202020">0.80</text>
<rect x="214" y="818" width="34" height="34" rx="3" fill="#b73535" stroke="#ffffff"/>
<text x="231.0" y="839" font-family="Arial" font-size="9" text-anchor="middle" fill="#202020">0.74</text>
<rect x="252" y="818" width="34" height="34" rx="3" fill="#d8d1c8" stroke="#ffffff"/>
<text x="269.0" y="839" font-family="Arial" font-size="9" text-anchor="middle" fill="#202020">0.65</text>
<rect x="290" y="818" width="34" height="34" rx="3" fill="#d8d1c8" stroke="#ffffff"/>
<text x="307.0" y="839" font-family="Arial" font-size="9" text-anchor="middle" fill="#202020">0.63</text>
<text x="82" y="877" font-family="Arial" font-size="10" text-anchor="end">eta=0.30</text>
<rect x="100" y="856" width="34" height="34" rx="3" fill="#b73535" stroke="#ffffff"/>
<text x="117.0" y="877" font-family="Arial" font-size="9" text-anchor="middle" fill="#202020">0.93</text>
<rect x="138" y="856" width="34" height="34" rx="3" fill="#b73535" stroke="#ffffff"/>
<text x="155.0" y="877" font-family="Arial" font-size="9" text-anchor="middle" fill="#202020">0.89</text>
<rect x="176" y="856" width="34" height="34" rx="3" fill="#b73535" stroke="#ffffff"/>
<text x="193.0" y="877" font-family="Arial" font-size="9" text-anchor="middle" fill="#202020">0.83</text>
<rect x="214" y="856" width="34" height="34" rx="3" fill="#b73535" stroke="#ffffff"/>
<text x="231.0" y="877" font-family="Arial" font-size="9" text-anchor="middle" fill="#202020">0.80</text>
<rect x="252" y="856" width="34" height="34" rx="3" fill="#b73535" stroke="#ffffff"/>
<text x="269.0" y="877" font-family="Arial" font-size="9" text-anchor="middle" fill="#202020">0.75</text>
<rect x="290" y="856" width="34" height="34" rx="3" fill="#d8d1c8" stroke="#ffffff"/>
<text x="307.0" y="877" font-family="Arial" font-size="9" text-anchor="middle" fill="#202020">0.66</text>
</svg>